<svg xmlns="http://www.w3.org/2000/svg" viewBox="0 0 1016.6 274" xmlns:v="https://vecta.io/nano"><path d="M208.9 136.9L162 88l56.8-71.5h80.6l-90.5 120.4zm-40.6-49.1l40.1 41.8 81.4-108.2h-68.7l-52.8 66.4zM300.9 49l-75.4 102 75.6 80.9z" fill="#090b15"/><path d="M293.1 262.3l-65.4-72.4L125.2 82V19h-58v243.3h58V154.1l98.9 108.2z" fill="#0c9"/><path d="M190.7 19H150l.3 50.5zm-.8 243.3l-40.2-46.1.3 46.1zM629.2 82.9L617.9 111h-44.8v28.1h42.1l-11.3 28.1h-30.8v28.1h56.1l-11.3 28.1h-44.8H545v-56.2-28.1-56.2h84.2zm226.8 0L844.8 111H800v28.1h42l-11.3 28.1h-30.8v28.1H856l-11.3 28.1h-44.8-28.1v-56.2-28.1-56.2H856zm111.6 0L956.3 111h-44.8v28.1h42.1l-11.3 28.1h-30.8v28.1 28.1h-28.1v-56.2-28.1-56.2h84.2zm-277.5 80.6c-4.2-1.5-8.7-3.7-13.4-6.9-4.7-3.1-9-7.3-12.8-12.4s-5.7-11.5-5.7-19.2c0-11.6 4.1-21.5 12.4-29.7 8.2-8.2 18.2-12.4 29.8-12.4s21.5 4.1 29.7 12.4c8.2 8.2 12.4 18.2 12.4 29.7h-28.1c0-3.8-1.4-7.1-4.1-9.9-2.8-2.8-6.1-4.1-9.9-4.1-3.9 0-7.2 1.4-9.9 4.1-2.7 2.8-4.1 6.1-4.1 9.9 0 5 2 8.8 6.1 11.4 4 2.6 7.1 4.2 9.2 4.7 1 .4 3.7 1.2 8.1 2.4 4.4 1.3 9 3.4 13.9 6.4 4.8 3 9.2 7 13.1 12s5.8 11.5 5.8 19.3c0 11.6-4.1 21.6-12.4 29.8s-18.2 12.4-29.7 12.4c-11.6 0-21.6-4.1-29.8-12.4-8.3-8.2-12.4-18.2-12.4-29.8h28.1c0 3.9 1.4 7.2 4.1 9.9s6 4.1 9.9 4.1c3.8 0 7.1-1.4 9.9-4.1s4.1-6 4.1-9.9c0-5.9-2.4-9.8-7.1-11.5l-9.6-3.6c-.8-.3-3.4-1.1-7.6-2.6zM465 136.7l31.3-53.8h-34.7l-17.1 25.6zm8.1 43.8v.1l-40.1-55-.1.2V82.9h-28.2v140.5h28.2v-50.9l35.9 50.9H503zm-174.6 84.2H223l-95.4-104.5v104.5H64.8V16.6h62.8V81l101.8 107.2 69.1 76.5zm-73.4-4.7h62.6L226 191.5 122.9 82.9V21.4H69.6V260h53.3V148l102.2 112z" fill="#090b15"/></svg>