<?xml version="1.0" encoding="utf-8"?>
<!-- Generator: Adobe Illustrator 24.1.3, SVG Export Plug-In . SVG Version: 6.00 Build 0)  -->
<svg version="1.1" id="Layer_1" xmlns:v="https://vecta.io/nano"
	 xmlns="http://www.w3.org/2000/svg" xmlns:xlink="http://www.w3.org/1999/xlink" x="0px" y="0px" viewBox="0 0 1016.6 274"
	 style="enable-background:new 0 0 1016.6 274;" xml:space="preserve">
<style type="text/css">
	.st0{fill:#090B15;}
	.st1{fill:#00CC99;}
	.st2{fill:#FFFFFF;}
</style>
<path class="st0" d="M208.9,136.9L162,88l56.8-71.5h80.6L208.9,136.9z M168.3,87.8l40.1,41.8l81.4-108.2h-68.7L168.3,87.8z
	 M300.9,49l-75.4,102l75.6,80.9L300.9,49z"/>
<path class="st1" d="M293.1,262.3l-65.4-72.4L125.2,82V19h-58v243.3h58V154.1l98.9,108.2H293.1z"/>
<path class="st2" d="M190.7,19H150l0.3,50.5L190.7,19z M189.9,262.3l-40.2-46.1l0.3,46.1H189.9z M629.2,82.9L617.9,111h-44.8v28.1
	h42.1l-11.3,28.1h-30.8v28.1h56.1l-11.3,28.1h-44.8H545v-56.2v-28.1V82.9L629.2,82.9L629.2,82.9z M856,82.9L844.8,111H800v28.1h42
	l-11.3,28.1h-30.8v28.1H856l-11.3,28.1h-44.8h-28.1v-56.2v-28.1V82.9L856,82.9L856,82.9z M967.6,82.9L956.3,111h-44.8v28.1h42.1
	l-11.3,28.1h-30.8v28.1v28.1h-28.1v-56.2v-28.1V82.9L967.6,82.9L967.6,82.9z M690.1,163.5c-4.2-1.5-8.7-3.7-13.4-6.9
	c-4.7-3.1-9-7.3-12.8-12.4s-5.7-11.5-5.7-19.2c0-11.6,4.1-21.5,12.4-29.7c8.2-8.2,18.2-12.4,29.8-12.4s21.5,4.1,29.7,12.4
	c8.2,8.2,12.4,18.2,12.4,29.7h-28.1c0-3.8-1.4-7.1-4.1-9.9c-2.8-2.8-6.1-4.1-9.9-4.1c-3.9,0-7.2,1.4-9.9,4.1
	c-2.7,2.8-4.1,6.1-4.1,9.9c0,5,2,8.8,6.1,11.4c4,2.6,7.1,4.2,9.2,4.7c1,0.4,3.7,1.2,8.1,2.4c4.4,1.3,9,3.4,13.9,6.4
	c4.8,3,9.2,7,13.1,12s5.8,11.5,5.8,19.3c0,11.6-4.1,21.6-12.4,29.8s-18.2,12.4-29.7,12.4c-11.6,0-21.6-4.1-29.8-12.4
	c-8.3-8.2-12.4-18.2-12.4-29.8h28.1c0,3.9,1.4,7.2,4.1,9.9s6,4.1,9.9,4.1c3.8,0,7.1-1.4,9.9-4.1s4.1-6,4.1-9.9
	c0-5.9-2.4-9.8-7.1-11.5l-9.6-3.6C696.9,165.8,694.3,165,690.1,163.5L690.1,163.5z M465,136.7l31.3-53.8h-34.7l-17.1,25.6L465,136.7
	z M473.1,180.5v0.1l-40.1-55l-0.1,0.2V82.9h-28.2v140.5h28.2v-50.9l35.9,50.9H503L473.1,180.5z M298.5,264.7H223l-95.4-104.5v104.5
	H64.8V16.6h62.8V81l101.8,107.2L298.5,264.7z M225.1,260h62.6L226,191.5L122.9,82.9V21.4H69.6V260h53.3V148L225.1,260L225.1,260z"/>
</svg>
