<?xml version="1.0" encoding="utf-8"?>
<!-- Generator: Adobe Illustrator 24.1.3, SVG Export Plug-In . SVG Version: 6.00 Build 0)  -->
<svg version="1.1" id="Layer_1" xmlns:v="https://vecta.io/nano"
	 xmlns="http://www.w3.org/2000/svg" xmlns:xlink="http://www.w3.org/1999/xlink" x="0px" y="0px" viewBox="0 0 1016.6 274"
	 style="enable-background:new 0 0 1016.6 274;" xml:space="preserve">
<style type="text/css">
	.st0{fill:#00CC99;}
	.st1{fill:#FFFFFF;}
	.st2{fill:#3CBDB2;}
</style>
<path class="st0" d="M293.1,262.3l-65.4-72.4L125.2,82V19h-58v243.3h58V154.1l98.9,108.2H293.1z"/>
<g>
	<g>
		<path class="st1" d="M214.9,17.8l-57.6,72.4l50.4,52.5l94-124.9H214.9z M206.6,123.3l-32.5-33.9l46.9-59h55.5L206.6,123.3z"/>
		<polygon class="st1" points="218,150.2 299.3,237.2 299.1,40.5 		"/>
	</g>
	<polygon class="st2" points="220.1,260 131.7,163.3 131.7,260 68.3,260 68.3,20.1 131.7,20.1 131.7,82.5 228.3,184.2 296.7,260 	
		"/>
	<polygon class="st1" points="146.8,200.8 147.2,262.3 197.9,262.3 	"/>
	<path class="st1" d="M229.9,182.6L134,81.6V17.8H66.1v244.5H134v-93.2l85.1,93.2h82.8L229.9,182.6z M121.4,136.6v113.1H78.7V30.4
		h42.7v56.2l99.3,104.5l52.8,58.5h-48.8L121.4,136.6z"/>
</g>
<path class="st1" d="M629.2,83.6l-11.3,28.1h-44.8v28.1h42.1L603.9,168h-30.8v28.1h56.1l-11.3,28.1h-44.8H545V168v-28.1V83.6H629.2
	L629.2,83.6z M856,83.6l-11.2,28.1H800v28.1h42L830.7,168h-30.8v28.1H856l-11.3,28.1h-44.8h-28.1V168v-28.1V83.6H856L856,83.6z
	 M967.6,83.6l-11.3,28.1h-44.8v28.1h42.1L942.3,168h-30.8v28.1v28.1h-28.1V168v-28.1V83.6H967.6L967.6,83.6z M690.1,164.2
	c-4.2-1.5-8.7-3.7-13.4-6.9c-4.7-3.1-9-7.3-12.8-12.4c-3.8-5.1-5.7-11.5-5.7-19.2c0-11.6,4.1-21.5,12.4-29.7
	c8.2-8.2,18.2-12.4,29.8-12.4s21.5,4.1,29.7,12.4c8.2,8.2,12.4,18.2,12.4,29.7h-28.1c0-3.8-1.4-7.1-4.1-9.9
	c-2.8-2.8-6.1-4.1-9.9-4.1c-3.9,0-7.2,1.4-9.9,4.1c-2.7,2.8-4.1,6.1-4.1,9.9c0,5,2,8.8,6.1,11.4c4,2.6,7.1,4.2,9.2,4.7
	c1,0.4,3.7,1.2,8.1,2.4c4.4,1.3,9,3.4,13.9,6.4c4.8,3,9.2,7,13.1,12s5.8,11.5,5.8,19.3c0,11.6-4.1,21.6-12.4,29.8
	c-8.3,8.2-18.2,12.4-29.7,12.4c-11.6,0-21.6-4.1-29.8-12.4c-8.3-8.2-12.4-18.2-12.4-29.8h28.1c0,3.9,1.4,7.2,4.1,9.9
	c2.7,2.7,6,4.1,9.9,4.1c3.8,0,7.1-1.4,9.9-4.1s4.1-6,4.1-9.9c0-5.9-2.4-9.8-7.1-11.5l-9.6-3.6C696.9,166.5,694.3,165.8,690.1,164.2
	L690.1,164.2z M465,137.4l31.3-53.8h-34.7l-17.1,25.6L465,137.4z M473.1,181.2v0.1l-40.1-55l-0.1,0.2V83.6h-28.2v140.5h28.2v-50.9
	l35.9,50.9H503L473.1,181.2z"/>
</svg>
