<svg xmlns="http://www.w3.org/2000/svg" xmlns:xlink="http://www.w3.org/1999/xlink" viewBox="0 0 361 320.2" xmlns:v="https://vecta.io/nano"><style><![CDATA[.Af{fill:#f0ae2b}.Ag{fill:#db961d}.Ah{fill:#ffc85c}.Ai{opacity:.53}.Aj{fill:#111319}.Ak{fill:#b26b51}.Al{fill:#53b997}.Am{fill:#377760}.An{fill:#1e1b1b}.Ao{fill:#202228}.Ap{fill:#011625}.Aq{fill:#339e75}.Ar{clip-path:url(#AK)}]]></style><linearGradient  gradientUnits="userSpaceOnUse" x1="0" y1="320.2" x2="1" y2="320.2"><stop offset=".008" stop-color="#ee9077"/><stop offset="1" stop-color="#ee9077" stop-opacity="0"/></linearGradient><path d="M36.1 313.7c48.9 4.4 137.3 9.4 211.2-6.4 29.6-6.3 56.6-15.9 65.1-37.3.6-1.6 6.3-16.6-1.1-26.7-10.2-13.8-42-4.3-52-1.7-103.1 27-241.4-30.3-258.4 7-4.2 9.3-2.3 27.1 35.2 65.1z" fill="#d8d8d8"/><ellipse transform="matrix(.177 -.9842 .9842 .177 130.4828 322.5479)" cx="258.1" cy="83.3" rx="53.5" ry="52.1" fill="#2a2e35"/><path d="M357.8 104.1c0 .2-.5 3.1-.6 3.3-3.8 13.9-49.6 14.6-104 4.9-54.5-9.8-97.3-26.4-95.8-40.8 0-.2.6-3.1.6-3.3 2.6-14.4 49.4-18 104.6-8.1s97.8 29.6 95.2 44z" fill="#252830"/><ellipse transform="matrix(.177 -.9842 .9842 .177 123.7575 326.7896)" cx="257.3" cy="89.4" rx="26.5" ry="101.5" fill="#0b0c10"/><radialGradient id="B" cx="229.771" cy="267.215" r="7.444" gradientUnits="userSpaceOnUse"><stop offset=".129" stop-color="#bdc9cb"/><stop offset=".584" stop-color="#abb6b8"/><stop offset="1" stop-color="#96a0a2"/></radialGradient><path d="M235.6 272c-.2 1.4-1.2 2.6-4.7 2.8-3.5.3-8.9-2.7-7.1-5.3 1-1.5 1.6-2.7 1.9-4.1.2-1.1.4-2.3.5-3.9 2.6-3.8 7.1-1.6 8.8-.6l-.1 4.4c0 .7.1 1.4.2 1.9.3 1.5 4.7 7.6.5 4.8z" fill="url(#B)"/><linearGradient id="C" gradientUnits="userSpaceOnUse" x1="230.267" y1="261.36" x2="230.382" y2="269.421"><stop offset="0" stop-color="#a6a5b1"/><stop offset="1" stop-color="#a6a5b1" stop-opacity="0"/></linearGradient><path d="M234.8 265.3c-2.9 1.1-6.5 1-9.1.1.2-1.1.4-2.3.5-3.9 2.6-3.8 7.1-1.6 8.8-.6-.2 1.6-.2 3.1-.2 4.4z" fill="url(#C)"/><path d="M231.9 248.5c1.2 2.6 3.2 9.8 5.1 13.7-.6.9-1.1 1.7-1.9 2.2-3.3 2-8.5.6-10.3-.4-1.8-3.8-3.3-8.2-5.1-11.7s-2.5-7.1-1.8-11c.5-2.9 1.6-11.7 2.4-17.8l.7-4.9c2.5-1.6 11.8-3.3 17.5 2.3-1.1 3.5-4.5 15.4-5.4 18.6-.5 1.5-1 3-1.3 4.4-.1.5-.2.9-.2 1.4-.1.6-.1 1.1 0 1.6 0 .3.1.5.2.8-.1.3 0 .6.1.8z" class="Aj"/><path d="M231.9 248.5c1.2 2.6 3.2 9.8 5.1 13.7-.6.9-1.1 1.7-1.9 2.2-1.5-4.3-4-11.7-4.6-12.3-.9-1-2.5.2-2-1.1.4-1.2-.1-2.1-2-1.8.7-.9 2.1-3 2.9-5.5s3.4-15.3 1.1-16.9c-2.1-1.4-6-2.1-10.1-3.3l.7-4.9c2.5-1.6 11.8-3.3 17.5 2.3-1.1 3.5-4.5 15.4-5.4 18.6-.5 1.5-1 3-1.3 4.4-.1.5-.2.9-.2 1.4-.1.6-.1 1.1 0 1.6 0 .3.1.5.2.8-.2.3-.1.6 0 .8z" class="Ai"/><path d="M231.8 243.9c-.1.5-.2.9-.2 1.4-.2.2-.3.5-.5.7-.5.7-1.2 1.2-1.9 1.7s-1.5.8-2.3 1c.7-.4 1.4-.8 2-1.4a13.65 13.65 0 0 0 1.7-1.7 6.57 6.57 0 0 0 1.2-1.7zm-.1 3.9c-.2.2-.3.5-.5.7-.4.5-.8.9-1.2 1.3l.9-1.5.7-1.3c0 .2 0 .5.1.8z"/><radialGradient id="D" cx="263.336" cy="266.796" r="7.857" gradientUnits="userSpaceOnUse"><stop offset=".129" stop-color="#bdc9cb"/><stop offset=".584" stop-color="#abb6b8"/><stop offset="1" stop-color="#96a0a2"/></radialGradient><path d="M263.2 275.5c-3.5-.3-3.8-2.5-4-4 0-.2-.1-.4-.1-.6-.2-1.1-.3-1.8 0-3.1.1-.6.2-1.3.2-2 .1-1.3-1.4-2.3-2.1-3.5.5-.8 1.3-2.1 2.5-3.1h0c.7-.6 1.6-1 2.5-1.2.9-.1 1.8 0 2.9.5.9 1.4 3.1 6.6 3.3 7.7h0c.2.9.5 1.7 1 2.6.3.5.5.9.9 1.4 1.9 2.6-3.6 5.5-7.1 5.3z" fill="url(#D)"/><linearGradient id="E" gradientUnits="userSpaceOnUse" x1="261.872" y1="260.613" x2="265.732" y2="273.559"><stop offset="0" stop-color="#a6a5b1"/><stop offset="1" stop-color="#a6a5b1" stop-opacity="0"/></linearGradient><path d="M269.5 268.7c-.2 0-.4 0-.6-.1-.9-2.3-2-2.4-4.2-2.2-1.8.1-3.8-.1-5.3-.6.1-1.3-1.4-2.3-2.1-3.5.5-.8 1.3-2.1 2.5-3.1h0c.7-.6 1.6-1 2.5-1.2.9-.1 1.8 0 2.9.5.9 1.4 3.1 6.6 3.3 7.7h0c.2.8.5 1.6 1 2.5z" fill="url(#E)"/><path d="M267.8 261.9c-.3 1-1 1.7-2 2.2-2.8 1.4-7.5.8-9.5-.5-1.1-1.9-7.6-11.3-10.2-15.3-.3-.5-.5-.8-.7-1.1v-.1c-1.7-2.7-6.2-11-8.7-16-.6-1.2-1.1-2.3-1.6-3.4-1.4-3.4-1.9-6.4-1.6-10.2 4.3-2.2 12.5-3.2 18.1 2.8.6 3.3 4.7 15.1 7 19.8 0 .1 0 .1.1.1.2.4.4.9.6 1.4 2.3 5.2 6.1 14.7 8.5 20.3z" class="Aj"/><path d="M267.8 261.9c-.3 1-1 1.7-2 2.2-1.8-4.9-4.2-12.1-4.6-13.1-.7-1.6-2.4-.3-2.6-1.8-.3-1.5-1.5-5.9-3.7-11.4s-5.4-9.9-8.3-10.4c-2.8-.4-7 0-11.4.4-1.4-3.4-1.9-6.4-1.6-10.2 4.3-2.2 12.5-3.2 18.1 2.8.6 3.3 4.7 15.1 7 19.8 0 .1 0 .1.1.1.2.4.4.9.6 1.4l8.4 20.2z" class="Ai"/><path d="M252.2 250.7c-.9 0-1.8-.1-2.6-.4-.9-.3-1.7-.7-2.4-1.2-.4-.2-.7-.5-1-.8l-.7-1.1 2 1.5c.7.5 1.5.9 2.3 1.2.7.4 1.6.7 2.4.8zm7.2-5.2l-.4 2.4.1-2.4-.1-2.4c0-.8-.1-1.6-.3-2.4 0-.2-.1-.4-.1-.6 0 .1 0 .1.1.1.2.4.4.9.6 1.4.1.5.1.9.2 1.4l-.1 2.5zm-25.9-28c-.2 2.4 0 4.8.6 7 .6 2.3 1.5 4.5 2.6 6.6-.7-1-1.3-2-1.9-3.1-.5-1.1-1-2.2-1.3-3.4s-.5-2.4-.5-3.6c0-.6 0-1.2.1-1.8.2-.5.3-1.1.4-1.7z" class="Aj"/><linearGradient id="F" gradientUnits="userSpaceOnUse" x1="201.207" y1="170.807" x2="182.756" y2="159.233"><stop offset="0" stop-color="#efa076"/><stop offset="1" stop-color="#ffddaf"/></linearGradient><path d="M199.4 169.7c0 .3-1.8 2.4-2.5 3.7-.5 1-.9 1.5-1 1.6-.1 0-.2-.2-.5-.7-.5-.7-1.8-2.9-3.3-4.5-2.8.4-5-1.7-7.4-3.8-.2-.1-.3-.3-.5-.4 0-.8.3-3.2 1-5.3.1-.4.3-.9.4-1.2.2-.5.4-.9.6-1.3l-5.5-4c-.7-.5-1.5-1.4-1.5-2.1 0-.3.1-.6.3-.8.8-.9 2.6.5 4.4 1.6s6.8 4.2 8.6 5.5 4.2 4.2 4.3 5.4c0 1 1.8 4.2 2.6 6.3z" fill="url(#F)"/><linearGradient id="G" gradientUnits="userSpaceOnUse" x1="187.533" y1="156.201" x2="196.317" y2="180.802"><stop offset=".008" stop-color="#ee9077"/><stop offset="1" stop-color="#ee9077" stop-opacity="0"/></linearGradient><path d="M198.5 168.1c-.1 2-.9 4-1.6 5.3l-1.5.9c-.5-.7-1.8-2.9-3.3-4.5-2.8.4-5-1.7-7.4-3.8-.2-.1-.3-.3-.5-.4 0-.8.3-3.2 1-5.3l2.5-1 .7 2.4c-1 1.9-1.7 3.7-1.2 4.8s3.4 2.7 5.3 1.1c.4.3 2 2.7 2 2.7.6-.8 3.8-2.8 4-2.2z" fill="url(#G)"/><linearGradient id="H" gradientUnits="userSpaceOnUse" x1="184.119" y1="152.376" x2="179.367" y2="162.013"><stop offset=".008" stop-color="#ee9077"/><stop offset="1" stop-color="#ee9077" stop-opacity="0"/></linearGradient><path d="M186 159.3s-.1-.1-.4-.2c.2-.5.4-.9.6-1.3l-5.5-4c-.7-.5-1.5-1.4-1.5-2.1.2.3.5.7 1.1 1.1l6.5 4.5c-.2.7-.8 2-.8 2z" fill="url(#H)"/><path d="M187.8 155.8c-.4.6-.8 1.2-1.1 1.9-.3.6-.6 1.3-.8 2l-.7 2.1-.6 2.1a8.33 8.33 0 0 1 .3-2.2 8.3 8.3 0 0 1 .6-2.1l.9-2c.4-.7.9-1.3 1.4-1.8z" class="Ak"/><linearGradient id="I" gradientUnits="userSpaceOnUse" x1="186.602" y1="163.35" x2="195.942" y2="156.693"><stop offset="0" stop-color="#efa076"/><stop offset="1" stop-color="#ffddaf"/></linearGradient><path d="M192.4 149.7c1-.7 1.8-.3 1.5.7s-.6 2.7.4 4.1 1.9 2.8 2.3 4.7.2 4.3-.1 6.1c-.7 1.2-2.5 2.2-3.9 1.3-1.4-1-1.7-4.2-1.3-5.9s.8-2.3 1.1-2.9c-.3-1.4-.8-2-1.1-3.1-.3-1-.4-1.9-.3-2.8.2-.8.7-1.7 1.4-2.2z" fill="url(#I)"/><path d="M192.6 166.7c-.3-.1-.5-.2-.7-.4s-.4-.4-.5-.7c-.3-.5-.5-1-.6-1.6-.1-.5-.1-1.1 0-1.7.1-.5.2-1.1.6-1.6-.3 1-.2 2.1-.1 3.1.1.5.2 1 .4 1.5.1.6.4 1.1.9 1.4zm-5.2-.5c.1-.3.1-.6 0-1a.76.76 0 0 0 .4-.2c.2-.1.3-.3.4-.4.1-.2.1-.3.2-.5.1-.3.2-.7 0-1.1v-.1c.3 0 .8-.2 1-.5s.3-.5.4-.8 0-.7-.1-1c-.2-.3-.4-.5-.6-.6-.2-.2-.4-.3-.7-.4-.5-.2-.9-.5-1.4-.7l1.3.9c.4.3.9.6 1.1 1 .3.5 0 1-.3 1.4-.2.3-.5.3-.8.3l-.3-.3-.2.3h-.2 0l.1.1-.2.3h.4c.1.3.2.7.1 1s-.2.5-.4.7c-.1.1-.2.1-.3.2 0-.1-.1-.1-.1-.2l-.1.3h-.2 0s.1.1.1.2l-.1.3h.2a1.1 1.1 0 0 1 0 .8c-.1.2-.2.4-.4.5s-.4.1-.6.1c-.8-.1-1.6-.4-2.4-.9.3.3.7.5 1.1.7s.8.4 1.3.4h.4c.1 0 .3 0 .5-.1.1-.2.3-.5.4-.7z" class="Ak"/><linearGradient id="J" gradientUnits="userSpaceOnUse" x1="180.845" y1="165.392" x2="187.321" y2="160.777"><stop offset="0" stop-color="#efa076"/><stop offset="1" stop-color="#ffddaf"/></linearGradient><path d="M186.9 166.3c-.1.2-.3.3-.6.4-.8 0-1.9-.4-2.7-.9-.3-.2-.5-.5-.6-.8-.2-.4-.3-.9 0-1.3.1-.1.2-.3.3-.3h.1s.1 0 .1-.1c-.9-.9-1.2-1.8-.6-2.6.1-.2.3-.3.5-.4v-.1c-.2-.3-.3-.6-.3-.9 0-.9.8-1.6 1.3-1.6.8 0 1.3.1 1.8.1 0 .5.6 1 .6 1 .8.6 1.8 1.1 2.3 1.6.4.5.3 1 0 1.5s-.8.5-1.3.4h-.2c0 .1.1.1.1.2h0c0 .1.1.1.1.2.1.2.1.3.2.5.1.4 0 .7-.2 1-.2.4-.5.5-.8.6h-.3l.2.2c.1.1.1.2.1.4.1.4 0 .7-.1.9z" fill="url(#J)"/><linearGradient id="K" gradientUnits="userSpaceOnUse" x1="186.47" y1="159.659" x2="184.822" y2="164.599"><stop offset=".008" stop-color="#ee9077"/><stop offset="1" stop-color="#ee9077" stop-opacity="0"/></linearGradient><path d="M187.8 162.5h-.2c0 .1.1.1.1.2-.5-.1-.9-.2-1.1-.4l-3.2-2v-.1c-.2-.3-.3-.6-.3-.9l3.5 2.2c.7.4 1.6.9 2.4.6-.2.5-.7.4-1.2.4z" fill="url(#K)"/><linearGradient id="L" gradientUnits="userSpaceOnUse" x1="186.131" y1="159.715" x2="184.883" y2="164.182"><stop offset=".008" stop-color="#ee9077"/><stop offset="1" stop-color="#ee9077" stop-opacity="0"/></linearGradient><path d="M188 163.3c-1 0-2.4-.5-3.8-1.6l-1.2-1c.1-.2.3-.3.5-.4.3.3.7.6 1.1.9.8.6 2.2 1.3 3.2 1.5 0 .1.1.1.1.2s.1.2.1.4z" fill="url(#L)"/><linearGradient id="M" gradientUnits="userSpaceOnUse" x1="185.164" y1="164.848" x2="184.023" y2="169.786"><stop offset=".008" stop-color="#ee9077"/><stop offset="1" stop-color="#ee9077" stop-opacity="0"/></linearGradient><path d="M183 165c1 .7 2.6 1.5 3.9 1.3-.1.2-.3.3-.6.4-.8 0-1.9-.4-2.7-.9-.2-.1-.4-.4-.6-.8z" fill="url(#M)"/><linearGradient id="N" gradientUnits="userSpaceOnUse" x1="185.723" y1="161.983" x2="184.298" y2="167.34"><stop offset=".008" stop-color="#ee9077"/><stop offset="1" stop-color="#ee9077" stop-opacity="0"/></linearGradient><path d="M187 165.5c-1.2 0-2.9-.8-4-1.8.1-.1.2-.3.3-.3h.1c.3.2.5.4.8.5.6.3 1.6.8 2.5 1l.2.2c.1.2.1.3.1.4z" fill="url(#N)"/><path d="M188.8 162.7c-.3.1-.7.2-1 .1-.2 0-.5-.1-.7-.1-.5-.1-1.1-.3-1.6-.6s-.9-.6-1.4-1l-.9-.9.1-.1s0-.1-.1-.1c.4.3.7.5 1.1.7.4.3.9.6 1.4.8.5.3.9.5 1.4.7.2.1.3.1.5.2.5.2.9.3 1.2.3zm-1 2.3c-.3.2-.6.2-.8.1-.2 0-.4 0-.5-.1-.4-.1-.9-.2-1.3-.4s-.8-.4-1.2-.7l-.6-.6c.1 0 .1-.1.2-.1l.6.3c.4.2.8.4 1.2.5.4.2.8.3 1.2.5.2.1.4.1.5.2.2.2.4.3.7.3z" class="Ak"/><path d="M228.9 171.1c-.1.5-.3 1-.5 1.5-1.3 3.8-1.3 9.1-2.8 11.9-.4.8-.8 1.4-1.1 1.9-.1.1-.1.2-.2.3h-.1c-1.1.3-3.2.8-4.5 1.2-.2 0-.3.1-.4.1-.4.1-.7.3-.9.4a5.72 5.72 0 0 1-2.7.8c-.9 0-6.5 1.2-9.2 1.4s-7-1.4-8.4-6.7c1.9-3.8 10.2-6.5 14.2-8 4-1.3 13.1-4.1 16.6-4.8z" class="Aj"/><path d="M203.6 181.4c-1.8 1.3.9 1.5 2.1 2 1.1.5 2.3 1.5 3.7 2.1 1 1.7 2.2 1.4 2.9.9.8-.4 3.6.8 4.2.8.7.1 1.2-1.1.9-1.7 1.8 1.3 1 .6 2.3.3s1-.2 1.9-.2c.9.1-.4-1.8-1.2-3 1.2.8 4.1 2.4 5.3 1.8-.4.8-.8 1.4-1.1 1.9-.1.1-.1.2-.2.3h-.1l-4.5 1.2c-.2 0-.3.1-.4.1-.4.1-.7.3-.9.4a5.72 5.72 0 0 1-2.7.8c-.9 0-6.5 1.2-9.2 1.4s-7-1.4-8.4-6.7c1.9-3.8 10.2-6.5 14.2-8 4-1.4 13.1-4.2 16.7-4.9-.1.5-.7 1.3-.9 1.9-3 .7-5.8 1.3-8 2-3.8 1.3-14.8 5.3-16.6 6.6z" class="Ai"/><path d="M224.5 186.5c-.1.1-.1.2-.2.3h-.1c-.6-.3-1.2-.8-1.7-1.2-.6-.6-1.2-1.2-1.6-1.9-.5-.7-.8-1.5-1.1-2.3.4.7.9 1.4 1.4 2.1.5.6 1.1 1.2 1.7 1.8.5.3 1 .8 1.6 1.2zm-4.9 1.4c-.2 0-.3.1-.4.1-.3-.3-.6-.6-.8-.9-.3-.4-.7-.8-1-1.2l-.9-1.3c.4.3.8.7 1.2 1.1l1.1 1.1c.3.4.6.7.8 1.1z"/><path d="M208.3 186.3v.3c0 1-.3 2.9-.5 3.9-2.8 0-4.7.4-7.7-1.8-1.6-1.2-3.1-2.8-4.5-5-.1-.1-.2-.3-.3-.4-.2-.3-.3-.6-.5-.8-.2-.3-.3-.6-.5-.9l-.6-1-.9-1.8c-.2-.3-.3-.6-.5-1 0-.1-.1-.1-.1-.2-1-2-1.8-3.9-2.3-5.5l2.2-2 6-5.2 2.9 4.5s0 .1.1.1l5.2 8.3c1 2.1 2 5.2 2 8.5z" class="Aj"/><path d="M208.3 186.3v.3c0 1-.3 2.9-.5 3.9-2.8 0-4.7.4-7.7-1.8-1.6-1.2-3.1-2.8-4.5-5-.1-.1-.2-.3-.3-.4-.2-.3-.3-.6-.5-.8-.2-.3-.3-.6-.5-.9l-.6-1-.9-1.8c-.2-.3-.3-.6-.5-1 0-.1-.1-.1-.1-.2-1-2-1.8-3.9-2.3-5.5l2.2-2c2.2 5.4 5.5 10.9 7.8 13.9s5.8 4.5 8.4 2.3z" class="Ai"/><path d="M206.3 178c.3.3.5.6.7.9l.6 1c.3.7.6 1.4.8 2.2.2.7.3 1.5.3 2.3s-.1 1.5-.3 2.3c0-1.5-.2-3-.5-4.4-.4-1.6-.9-3-1.6-4.3zm-5.2-8.3l-1.8 2.1c-.8.9-1.7 1.7-2.5 2.5l-2.7 2.3c-.5.4-1.1.8-1.7 1.2 0-.1-.1-.1-.1-.2l1.5-1.4 2.6-2.4 2.6-2.4c.7-.5 1.4-1.1 2.1-1.7 0-.1 0-.1 0 0z"/><path d="M241.5 166.6c-3.2 1.3-3.5 2.4-5.4 3s-7.6 7.3-8.5 14-4.2 36.8-4.2 38.7c2.9 1.2 15 2 18.3 1.6 5.8-5.5 8.8-52.4 8.6-55.7-.2-3.2-5.5-3.7-8.8-1.6z" class="Al"/><path d="M234.1 170.9c-.6 1.4-.2 3.2.9 4.2s2.8.9 4.2.6c1.5-.3 2.9-1 4.2-1.8l1.9-1.4 1.8-1.4c-.6.5-1.1 1.1-1.7 1.7l-1.8 1.5c-1.3.9-2.7 1.7-4.3 2-.8.1-1.6.2-2.4.1s-1.6-.4-2.2-1c-1.2-1.2-1.4-3.2-.6-4.5z" class="Am"/><path d="M260.2 176.9c-.3 4.4-2.7 12.2-3.2 15.1-.4 2.3-1.9 5.5-3.3 8-.9 1.7-1.8 3.2-2.3 3.9h0c0 .1-.1.1-.1.2v.2c.3 1.5-.1 3.6-.1 5-.1 1.5 2.2 6 2 11.6-.7.4-1.5.8-2.4 1.2-5.8 2.2-14.8 24.1-16.7 23.6.1-3-1.3-37.3-.1-46 .1-.9.3-1.7.4-2.5.7-3.3 1.6-6.5 2.5-9.4 1.7-5.1 3.4-9.4 4.3-11.5.7-1.9 2.7-3.8 2.7-3.8l5.8-3.4.1-6.4-13.8 5.9-2.7 1-1.4 6.8-2.1 6.9c-1.1 3.6-2.2 7.9-2.9 11.3-.1.4-.2.8-.2 1.2-1 6.2 4.2 43.1 3.9 50-2.4.1-11.3-23.6-12.6-24.5.1-1.3.9-12.7.9-15.3v-.4-.6c.1-.9.6-1.9.7-2.7v-.6c-.1-1 .1-3.3.6-7.7.1-.9.2-1.9.4-3 .6-4.7 2.5-10.7 5-15.2.5-.9 1.6-2.7 2.3-4.1a.76.76 0 0 0 .2-.4c.4-.7.7-1.1.7-1.2.1-.1 1.5-.6 3.8-1l2-.9 15.5-6.5s1.1 4.9 2.3 5.4c1.9 1.5 5.5 4 7.5 6.9.3.4.4 1.5.3 2.9z" class="Ao"/><path d="M224 204.9c-.8 0-1.4-.4-2.1-.8-.6-.4-1.2-.8-1.8-1.4-.2-.2-.4-.4-.6-.7v-.6c.3.3.6.6.9 1 .5.5 1 1 1.6 1.4.7.5 1.3 1 2 1.1zm-3 3.6c-.5-.4-.9-.8-1.3-1.3l-.9-1.3v-.4-.6l.3.6.9 1.5c.4.5.7 1 1 1.5zm4.5-32.9c-1.5 2.8-2.7 5.8-3.6 8.8-.5 1.5-.8 3.1-1.1 4.6-.3 1.6-.4 3.2-.6 4.7l.2-4.8c.2-1.6.6-3.2 1-4.7l1.7-4.5c.3-.7.7-1.4 1.1-2.1l1.3-2z"/><path d="M251.4 203.9c0 .1-.1.1-.1.2v.2c.3 1.5-.1 3.6-.1 5-.1 1.5 2.2 6 2 11.6-.7.4-1.5.8-2.4 1.2 0-3.2 0-6.9-.2-8.3-.3-2.5-4.2-5.8-7.2-6.5 2.7-1.3 6.1-4 6.8-5.7s.3-3-.4-2.7c-.8.3-2.6.3-4.2.3 2-1.1 5.3-3.2 6.2-4.3s1-2.3-.1-2.3c-1.1-.1-2.6-.2-5.4-1.4 2.4 0 5.3-.6 5.9-1.9-.7-.6-2.1-3.4-1.8-5.9.2.9 2.2 3.5 3.6 2.5 1.4-.9 5-9.8 4.4-11.7s-3.1-3.7-4.7-3.4-1.8 2.3-2.1 3.6c0 0-2.7 1.2-4.5 1.3-3 .2-13 29.4-13.9 31.2-1.5-1.3 6.9-33.3 10.7-34.4l5.8-3.4.1-6.4-13.8 5.9-2.7 1c.5.1-5.9 22.9-6.6 26.2-3.4-4.5 1.8-23.7 1.1-24.1-.1-.1-.2-.1-.3-.2l.6-.2.3-.1h0l2.8-1 1.5-1.2 2-.9 15.5-6.5s1.1 4.9 2.3 5.4c1.9 1.5 5.5 4 7.5 6.9 1.8 2.2-2.1 14.2-2.8 18-.9 3.8-4.5 10.1-5.8 12h0z" class="Ai"/><path d="M250.4 204.7v.2c-.4.3-.8.5-1.2.7-.9.5-1.9.8-2.8 1-1 .2-2 .2-3 .2s-2-.1-3-.2l2.9-.2 2.9-.4c1-.2 1.9-.5 2.8-.8l1.3-.6.1-.1c.1.1 0 .2 0 .2zm5.9-15l-.9.6c-.4.2-.8.4-1.2.5-.8.3-1.7.5-2.6.7-.9.1-1.8.2-2.7.1-.9 0-1.8-.2-2.6-.4.9.1 1.7.1 2.6.1s1.7-.1 2.6-.2c.8-.1 1.7-.3 2.5-.6.9-.2 1.6-.5 2.3-.8zm-.6 2.3c-.1.2-.1.4-.2.7l-.5.8c-.7.9-1.5 1.7-2.3 2.5-.9.7-1.8 1.4-2.8 1.9-.5.3-1 .5-1.6.7a9.83 9.83 0 0 1-1.6.5c.5-.2 1-.5 1.5-.7.5-.3 1-.5 1.5-.8 1-.6 1.9-1.2 2.7-2a13.63 13.63 0 0 0 2.4-2.4c.2-.3.6-.8.9-1.2z"/><path d="M237.8 188.6l9.2.6c-.5 3.4-.7 6.4-.8 9.2l-4.2 1.9-5-2.4c-.2-2.9.1-6 .8-9.3z" class="Ao"/><path d="M237.8 188.6l9.2.6c-.8.2-1.5.2-2.3.3h-2.3c-.8-.1-1.5-.1-2.3-.3l-1.1-.2c-.5-.2-.9-.2-1.2-.4z"/><path d="M252.4 168.1c-.2 1.9-.7 5.2-1.1 6.7h-.1c-1.4-.3-5.3-1.1-6.7-.8-1.4.4-2.6 1.7-3.7 3.3.4-1.4 1.4-3.5 3.7-5.8 1.9-2 3.5-4.2 4.7-6.5l.6-1.3s-10.8 4.1-14.5 5.8c-1 1.1-2.8 3.9-3.8 7.6-.4-.9-.9-2.7-1-3.7 0-.1-.1-.2-.2-.3-.6-.3-1.6-.6-3.9-.7 2.5-1.6 4.9-3.5 6.8-5.1l3.7-3.3c1.7-1.6 9.8-3.1 11.2-2.9 1.3.2 1.9 1.1 2.4 2.2s1.4 3.4 1.9 4.8z" class="Ao"/><linearGradient id="O" gradientUnits="userSpaceOnUse" x1="238.606" y1="159.184" x2="245.2" y2="186.886"><stop offset="0" stop-color="#68a38c"/><stop offset="1" stop-color="#68a38c" stop-opacity="0"/></linearGradient><path d="M252.4 168.1c-.2 1.9-.7 5.2-1.1 6.7h-.1c-.1-2.1-1-7.4-2-9.8.2-.4.4-.8.6-1.3 0 0-10.8 4.1-14.5 5.8-1 1.1-2.8 3.9-3.8 7.6-.6-1-1-2.7-1-3.7a3.04 3.04 0 0 1 .5-.7c1.9-2.6 2.7-4.3 2.2-5.4l3.7-3.3c1.7-1.6 9.8-3.1 11.2-2.9 1.3.2 1.9 1.1 2.4 2.2s1.4 3.4 1.9 4.8z" fill="url(#O)"/><path d="M240.8 177.4c.5-.8 1.1-1.6 1.8-2.3.7-.6 1.7-1.2 2.7-1.1 1 0 2 .1 3 .3l3 .6h0c.3-1.1.5-2.2.7-3.3l.5-3.4-.1 3.4c-.1 1.1-.2 2.3-.5 3.4l-.1.5-.5-.1-2.9-.6a15.04 15.04 0 0 0-2.9-.3c-.9 0-1.7.3-2.5.9-.9.5-1.6 1.2-2.2 2zm-14.4-4.9c.7 0 1.4.1 2.1.2s1.4.2 2 .7c.4.6.4 1.3.5 2s.6 1.4.6 2c-.2-.7-.9-1.4-1-2-.1-.3-.1-.7-.2-1s-.2-.6-.3-.7l-.2-.1c-.1-.1-.3-.1-.4-.2l-1-.3-1-.3-1.1-.3z"/><linearGradient id="P" gradientUnits="userSpaceOnUse" x1="243.003" y1="161.12" x2="243.003" y2="170.645"><stop offset="0" stop-color="#efa076"/><stop offset="1" stop-color="#ffddaf"/></linearGradient><path d="M249.9 163.7c-.1.4-.2.7-.4 1-1 2.3-2.6 4.3-4.5 5.7-2.3 1.7-5 2.6-7.2 2.4-1.8-.2-1.7-2.6-1.7-3.3.2-.2.3-.5.5-.9.5-1.3.9-3.4 1-4.7v-7.7c1.2-1 2.8-1.9 4.7-2.4.1 0 .2-.1.3-.1.2-.1.4-.1.6-.1.6-.1 1.2-.2 1.8-.2 1.7 0 3.4.6 4.8 2v.3c-.1 2.7.1 6.2.1 8z" fill="url(#P)"/><linearGradient id="Q" gradientUnits="userSpaceOnUse" x1="243.539" y1="160.816" x2="238.613" y2="179.815"><stop offset=".008" stop-color="#ee9077"/><stop offset="1" stop-color="#ee9077" stop-opacity="0"/></linearGradient><path d="M249.9 163.7c-.1.4-.2.7-.4 1-1 2.3-2.6 4.3-4.5 5.7-3.5 1-7 .8-8.4-1.8.5-1.3.9-3.4 1-4.7v-7.7c1.2-1 2.8-1.9 4.7-2.4.1 0 .2-.1.3-.1.2-.1.4-.1.6-.1.6-.1 1.2-.2 1.8-.2 1.7 0 3.4.6 4.8 2v.3c-.1 2.7.1 6.2.1 8z" fill="url(#Q)"/><linearGradient id="R" gradientUnits="userSpaceOnUse" x1="220.172" y1="118.564" x2="201.104" y2="119.859"><stop offset="0" stop-color="#efa076"/><stop offset="1" stop-color="#ffddaf"/></linearGradient><path d="M208.2 112.7c-2.1-3.7-5-7.3-9.1-7.3-4.1.1-6.7 3.3-6.8 9.6-.2 6.2.8 9.6 5.1 14 4.4 4.4 6.7 6.6 12.4 4 1.9-6.6-.7-17.9-1.6-20.3z" fill="url(#R)"/><linearGradient id="S" gradientUnits="userSpaceOnUse" x1="207.187" y1="118.093" x2="191.01" y2="129.652"><stop offset=".008" stop-color="#ee9077"/><stop offset="1" stop-color="#ee9077" stop-opacity="0"/></linearGradient><path d="M194.7 117.1c.2-3.3.8-5.4 3.2-5.6s5.6 3.3 7.2 8.5c-2 2-1.7 5-1.1 6.8s3.1 3 4.7 3.8c-3.2.1-4.8-.1-6.9-2.1s-4.5-3.3-5.7-4.8-1.6-3.8-1.4-6.6z" fill="url(#S)"/><path d="M206.9 130c-.5-.4-1.1-.7-1.5-1.2-1-.8-1.6-1.9-2-3.1-.3-1.2-.3-2.4.2-3.5.2-.6.6-1.2 1.1-1.7l.3-.3c0-.1 0-.2-.1-.2-.2-.4-.3-.9-.5-1.3-.6-1.3-1.2-2.5-2-3.7-.8-1.1-1.6-2.4-3.1-3-.7-.3-1.6-.4-2.3-.1s-1.3.9-1.3 1.6c.1-.7.8-1.1 1.4-1.3s1.3-.1 1.9.2c1.2.6 1.9 1.8 2.7 2.9s1.5 2.3 2.1 3.5c.2.5.5.9.7 1.4-.6.5-1.1 1.1-1.4 1.8-.6 1.2-.7 2.6-.4 3.9s1.2 2.5 2.3 3.3c.5.4 1.1.7 1.7 1.1.6.3 1.3.6 2 .5-.6-.1-1.2-.4-1.8-.8zm-10.4-7.8c-.5-1.2-.4-2.6-.1-3.9s.8-2.6 1.3-3.9c-.7 1.2-1.4 2.5-1.8 3.8-.4 1.4-.5 2.9 0 4.3s1.5 2.5 2.6 3.5c1.1.9 2.4 1.7 3.7 2.3l-3.3-2.7c-1.1-1.1-2-2.2-2.4-3.4z" class="Ak"/><radialGradient id="T" cx="252.857" cy="119.572" r="45.194" gradientUnits="userSpaceOnUse"><stop offset=".459" stop-color="#ffddaf"/><stop offset=".606" stop-color="#fed9ac"/><stop offset=".739" stop-color="#fbcea1"/><stop offset=".867" stop-color="#f6bc90"/><stop offset=".992" stop-color="#f0a278"/><stop offset="1" stop-color="#efa076"/></radialGradient><path d="M213.4 78.3c-4.4 9.3-5.8 19.2-5.8 25-.1 11.6.9 24.7 1.3 30.7.4 6.1 3.5 12.4 10.3 18.1 5 4.2 11.5 8.4 17.3 10.8 2.1.9 4.1 1.5 5.9 1.7 1.7.3 3.9.2 6.2-.1 1.5-.2 3.2-.4 4.8-.8 5.7-1.1 11.6-2.9 15-4.1 5.9-2.1 11.8-6.5 15-13.9s12.2-31.8 13.7-38.7c.6-2.5 1.5-9.1.3-16.9-25.2-14.3-55.9-20.2-84-11.8z" fill="url(#T)"/><path d="M236.5 162.8a30.88 30.88 0 0 0 5.9 1.8c2.1.3 4.1.1 6.2-.1-1 .4-2 .7-3.1.8-1.1.2-2.1.2-3.2 0a15.83 15.83 0 0 1-3.1-.9c-.9-.3-1.8-.9-2.7-1.6zm-28.9-59.5c-.1 10.3.6 20.5 1.3 30.7-.3-1.3-.4-2.5-.7-3.8l-.5-3.8c-.3-2.6-.4-5.1-.6-7.7-.1-2.6-.2-5.1-.1-7.7l.2-3.9c.2-1.3.2-2.6.4-3.8z" class="Ak"/><radialGradient id="U" cx="221.925" cy="57.786" r="12.629" gradientTransform="matrix(0.9892 0.1463 -0.1463 0.9892 22.1553 25.901)" gradientUnits="userSpaceOnUse"><stop offset=".008" stop-color="#ee9077"/><stop offset="1" stop-color="#ee9077" stop-opacity="0"/></radialGradient><circle cx="233.2" cy="115.5" r="12.6" fill="url(#U)"/><radialGradient id="V" cx="259.635" cy="54.839" r="14.625" gradientTransform="matrix(0.9892 0.1463 -0.1463 0.9892 22.1553 25.901)" gradientUnits="userSpaceOnUse"><stop offset=".008" stop-color="#ee9077"/><stop offset="1" stop-color="#ee9077" stop-opacity="0"/></radialGradient><circle cx="271" cy="118.1" r="14.6" fill="url(#V)"/><radialGradient id="W" cx="212.906" cy="83.25" r="8.774" gradientTransform="matrix(0.9892 0.1463 -0.1463 0.9892 22.1553 25.901)" gradientUnits="userSpaceOnUse"><stop offset="0" stop-color="#dd6162"/><stop offset="1" stop-color="#df6263" stop-opacity="0"/></radialGradient><circle cx="220.6" cy="139.4" r="8.8" opacity=".3" fill="url(#W)"/><radialGradient id="X" cx="263.835" cy="83.25" r="8.774" gradientTransform="matrix(0.9892 0.1463 -0.1463 0.9892 22.1553 25.901)" gradientUnits="userSpaceOnUse"><stop offset="0" stop-color="#dd6162"/><stop offset="1" stop-color="#df6263" stop-opacity="0"/></radialGradient><circle cx="271" cy="146.8" r="8.8" opacity=".3" fill="url(#X)"/><path d="M214.7 104.3c3.4-2.2 4.7-3.5 8.1-4.6s7.8-.1 11.4.4 6.6-.4 8-2.5c-1.6.4-7.2 0-11.8-.6s-9.1-.5-15.7 7.3z" class="An"/><radialGradient id="Y" cx="259.569" cy="58.511" r="10.943" gradientTransform="matrix(0.9892 0.1463 -0.1463 0.9892 22.1553 25.901)" gradientUnits="userSpaceOnUse"><stop offset="0" stop-color="#484241"/><stop offset="1" stop-color="#383432"/></radialGradient><path d="M282.1 124.6c.3-4.8-2.4-9.8-7-11.6-2.9-1.2-6.3-.9-9.1.3-4.8 2-7.9 7.5-8.5 12.5-.1 1.1-.2 1.9.5 2.8s2.1 1.4 4 1.6 4.4.4 7.1.6c3.8.2 7.7.6 10.2-.6 1.7-.9 2.7-2.8 2.8-5.6z" fill="url(#Y)"/><radialGradient id="Z" cx="259.287" cy="60.546" r="17.1" gradientTransform="matrix(0.9892 0.1463 -0.1463 0.9892 22.1553 25.901)" gradientUnits="userSpaceOnUse"><stop offset=".47" stop-color="#fff"/><stop offset="1" stop-color="#a6a5b1"/></radialGradient><path d="M257.5 127.4c.2 2.7 5.7 2.6 10.8 2.8 6.4.3 11.2 1 12.7-3.4 1.6-4.8-1.7-13.2-9.3-13.5-11-.6-14.4 10.8-14.2 14.1z" fill="url(#Z)"/><linearGradient id="a" gradientUnits="userSpaceOnUse" x1="271.3" y1="112.909" x2="268.273" y2="132.795"><stop offset="0" stop-color="#a6a5b1"/><stop offset="1" stop-color="#a6a5b1" stop-opacity="0"/></linearGradient><path d="M271.3 115.1c6.8.4 10.2 6.5 9.8 10.9 1-4.9-2.3-12.4-9.5-12.7-9.8-.5-13.6 8.8-14.1 13 .7-4 4.4-11.7 13.8-11.2z" fill="url(#a)"/><defs><path id="b" d="M257.5 127.4c.2 2.7 5.7 2.6 10.8 2.8 6.4.3 11.2 1 12.7-3.4 1.6-4.8-1.7-13.2-9.3-13.5-11-.6-14.4 10.8-14.2 14.1z"/><path id="c" d="M205.2 140.9s-1.1 4.5-3.1 8.8c0 0-3.4 6.5-2.9 11.7 0 0 .2 6 7.7 10.5 0 0 4.3 3.3 1.8 7.2 0 0 9.5-3.8 4-9.5 0 0-11.3-8.2-5.2-17l2.6-4.7-4.9-7z"/><path id="d" d="M65.9 263.7c4.2 7.4 1.5 16.8-5.9 21s-16.8 1.5-21-5.9l26.9-15.1z"/><path id="e" d="M61.9 265.9c2.9 5.2 1.1 11.9-4.2 14.8-5.2 2.9-11.9 1.1-14.8-4.2-2.9-5.2-1.1-11.9 4.2-14.8 5.2-2.9 11.9-1 14.8 4.2z"/><path id="f" d="M42.9 276.5c-2.9-5.2-1.1-11.9 4.2-14.8 5.2-2.9 11.9-1.1 14.8 4.2l-19 10.6z"/><path id="g" d="M83.8 234.8l-.8 2.1h-3.3v2.1h3.1l-.8 2.1h-2.3v2.1h4.1l-.8 2.1h-3.3-2.1v-4.1-2.1-4.1h6.2z"/></defs><clipPath id="h"><use xlink:href="#b"/></clipPath><g clip-path="url(#h)"><radialGradient id="i" cx="257.48" cy="64.703" r="8.106" gradientTransform="matrix(0.9892 0.1463 -0.1463 0.9892 22.1553 25.901)" gradientUnits="userSpaceOnUse"><stop offset=".695" stop-color="#c3996b"/><stop offset=".858" stop-color="#a87c4f"/><stop offset="1" stop-color="#4d3b2a"/></radialGradient><circle cx="268.1" cy="124.2" r="8.1" fill="url(#i)"/><radialGradient id="j" cx="257.721" cy="61.299" r="8.106" gradientTransform="matrix(0.9892 0.1463 -0.1463 0.9892 22.1553 25.901)" gradientUnits="userSpaceOnUse"><stop offset=".892" stop-color="#333233" stop-opacity="0"/><stop offset="1" stop-color="#333233"/></radialGradient><circle cx="268.1" cy="124.2" r="8.1" fill="url(#j)"/><circle cx="268.1" cy="124.2" r="5.8" fill="#222223"/><g fill="#fff"><circle cx="273" cy="121.8" r="1.2"/><circle cx="265" cy="127.6" r=".6"/></g></g><radialGradient id="k" cx="287.406" cy="58.511" r="10.943" gradientTransform="matrix(-0.9892 -0.1463 -0.1463 0.9892 521.7253 99.758)" gradientUnits="userSpaceOnUse"><stop offset="0" stop-color="#484241"/><stop offset="1" stop-color="#383432"/></radialGradient><path d="M216.8 114.9c1.1-4.7 5.1-8.6 10-9.1 3.1-.3 6.3 1 8.6 2.9 4 3.4 5.4 9.5 4.5 14.5-.2 1.1-.4 1.9-1.3 2.6s-2.4.7-4.3.4l-6.9-1.5c-3.8-.9-7.6-1.6-9.6-3.5-1.4-1.4-1.7-3.5-1-6.3z" fill="url(#k)"/><radialGradient id="l" cx="287.125" cy="60.546" r="17.1" gradientTransform="matrix(-0.9892 -0.1463 -0.1463 0.9892 521.7253 99.758)" gradientUnits="userSpaceOnUse"><stop offset=".47" stop-color="#fff"/><stop offset="1" stop-color="#a6a5b1"/></radialGradient><path d="M239.6 124.8c-.9 2.6-6.2.8-11.1-.4-6.2-1.6-11-2.3-11.1-7-.1-5.1 5.4-12.1 12.8-10.2 10.5 2.6 10.5 14.5 9.4 17.6z" fill="url(#l)"/><linearGradient id="m" gradientUnits="userSpaceOnUse" x1="287.041" y1="49.622" x2="286.956" y2="69.739" gradientTransform="matrix(-0.9892 -0.1463 -0.1463 0.9892 521.7253 99.758)"><stop offset="0" stop-color="#a6a5b1"/><stop offset="1" stop-color="#a6a5b1" stop-opacity="0"/></linearGradient><path d="M229.9 109c-6.6-1.6-11.6 3.2-12.5 7.6.4-5 5.7-11.2 12.8-9.4 9.5 2.4 10.4 12.3 9.7 16.5.5-4.1-.9-12.5-10-14.7z" fill="url(#m)"/><defs><path id="n" d="M239.6 124.8c-.9 2.6-6.2.8-11.1-.4-6.2-1.6-11-2.3-11.1-7-.1-5.1 5.4-12.1 12.8-10.2 10.5 2.6 10.5 14.5 9.4 17.6z"/></defs><clipPath id="o"><use xlink:href="#n"/></clipPath><g clip-path="url(#o)"><radialGradient id="p" cx="256.784" cy="64.703" r="8.106" gradientTransform="matrix(0.9892 0.1463 -0.1463 0.9892 -15.0239 20.4044)" gradientUnits="userSpaceOnUse"><stop offset=".695" stop-color="#c3996b"/><stop offset=".858" stop-color="#a87c4f"/><stop offset="1" stop-color="#4d3b2a"/></radialGradient><circle cx="230.3" cy="118.6" r="8.1" fill="url(#p)"/><radialGradient id="q" cx="257.025" cy="61.299" r="8.106" gradientTransform="matrix(0.9892 0.1463 -0.1463 0.9892 -15.0239 20.4044)" gradientUnits="userSpaceOnUse"><stop offset=".892" stop-color="#333233" stop-opacity="0"/><stop offset="1" stop-color="#333233"/></radialGradient><circle cx="230.3" cy="118.6" r="8.1" fill="url(#q)"/><circle cx="230.3" cy="118.6" r="5.8" fill="#222223"/><g fill="#fff"><circle cx="235.1" cy="116.2" r="1.2"/><circle cx="227.1" cy="122" r=".6"/></g></g><linearGradient id="r" gradientUnits="userSpaceOnUse" x1="248.278" y1="177.916" x2="244.671" y2="214.595"><stop offset="0" stop-color="#68a38c"/><stop offset="1" stop-color="#68a38c" stop-opacity="0"/></linearGradient><path d="M260.2 177.9c-.3 4.4-2.7 12.1-3.2 15-.4 2.3-1.9 5.4-3.3 8-1.3 1.7-3 3.5-4.7 4.4-.5.5-1.2.8-1.9.7-3.8-.4-10.1-3.5-13-5.4.1-.9.3-1.7.4-2.5.7-3.3 1.6-6.5 2.5-9.4 3 1.8 6.3 3.7 8.1 4.4l6.7-11c.8-1.3 1.9-2.3 3.1-3.1 1.9-.9 4-1.3 5.3-1.1z" fill="url(#r)"/><path d="M261 184.1c-1.1 3.3-5 8.5-6.9 11.6s-6.7 9-10.2 6.6c-.8-.5-1.2-1.4-1.5-2.3-.9-3.4.8-8.6 1.6-9.8 0-.1.1-.1.1-.2.1-.1.1-.2.2-.3 1.3-2 4.3-6.9 6.4-10.5.8-1.3 1.9-2.3 3.1-3.1 1.6-1 3.4-1.4 4.6-1.4.6 0 1.2.1 1.5.4 2.6 1.8 2.2 5.8 1.1 9z" class="Aj"/><path d="M250.6 195.1c-.4-.9-.9-1.7-1.6-2.4-.6-.7-1.4-1.3-2.2-1.8s-1.8-.8-2.7-1h-.1c.1-.1.1-.2.2-.3 1 .1 1.9.4 2.8.9s1.7 1.2 2.3 2c.6.7 1.1 1.7 1.3 2.6z" fill="#2a7239"/><path d="M261 184.1c-1.1 3.3-5 8.5-6.9 11.6s-6.7 9-10.2 6.6c-.8-.5-1.2-1.4-1.5-2.3 2.4-.2 5-.5 6.6-2.3 2.1-2.5 7.6-11 9.2-14.1s.8-6.9.2-8.7c0-.1.1-.1.1-.2.6 0 1.2.1 1.5.4 2.5 1.8 2.1 5.8 1 9z" class="Ai"/><path d="M243.8 202.2c.9.7 2.2.7 3.2.3 1.1-.4 2-1.1 2.8-1.8 1.7-1.5 3-3.3 4.3-5.2l3.7-5.6c1.2-1.9 2.4-3.8 3.2-5.9-.3 1.1-.8 2.1-1.2 3.1l-1.6 3-3.6 5.7c-1.3 1.9-2.7 3.7-4.4 5.2-.9.7-1.9 1.4-3 1.7-1.2.4-2.5.3-3.4-.5z"/><path d="M253.7 176c-1.2.7-2.3 1.8-3.1 3l-2.2 3.7-4.5 7.4 1.9-3.9 2.1-3.7 2.3-3.6c.4-.6.9-1.2 1.5-1.7.7-.5 1.3-.9 2-1.2z" class="Aj"/><g class="An"><path d="M207.3 118.9c.3 1.5.2 3 .4 4.5.5 3.9 1.2 7.9 2.1 11.7 2.4 10.1 6.4 20.6 13.8 28.2 2.7 2.8 5.9 5.2 9.5 6.8 5.3 2.4 10.6 2.3 16.3 2.4 1.5 0 3.1 0 4.6-.2 7-.9 14-5.8 19.2-10.4 5.3-4.7 9.5-10.4 12.5-16.8 1.2-2.4 2.1-5 2.9-7.5l1.2-4.2c.1-.6 1.3-4.1.9-4.5.1.1-5.5 7.2-5.8 7.6-4.1 5.3-8.4 10.6-13.2 15.4-4.8 4.9-11.5 11.5-18.9 11.4-1.5 0-1.2-5.5-3.3-5.7-2.2-.2-4.5-.1-6.8-.4-1.5-.2-1.7-.3-2.6.8s-1.5 2.9-2.7 3.7c-6.2-5.3-12.1-10.3-17-17-5.6-7.8-9.9-16.6-13.1-25.8z"/><path d="M210.2 81.3s-1.1 8.3-6.5 14.1c0 0-4.3 4-4.6 10.8 0 0 2.2-5 5.2-6.3 0 0-8.8 14.8-1.6 25.4 0 0-7.9 9.9 1.8 18.2 0 0 5.9 6.1 2.3 11.3 0 0 8.7-2.8 5-9 0 0-3.7-5.3-3.6-7.6 0 0 5.1-4.2 2.7-13.1 0 0 5.2-6 1.3-12.3 0 0-4.6-5.7 1.5-11.9 0 0 16.3-9 13.9-25.7 0 .1-13.2-1.3-17.4 6.1zm71 .8s.6 5.3 3.6 12.4c0 0 4 10.7 1 20 0 0-1.4 5.5 1.9 9 0 0-3.6 10 2.5 16.1 0 0 2.1 2.1-.8 5.2 0 0-8 6.1-7.5 13.8 0 0 0 7.2 7.7 12.5 0 0 5.7 2.7-.3 8 0 0-9.4 5.4-1.8 12.2 0 0-1.9-5.3 4.7-7.9 0 0 13.6-4.3 2.8-17.5 0 0-9-8.6-1.4-15.9 0 0 14.6-8.4 3-22.8 0 0 11.4-7.5 2-20.8 0 0 7.7-8.3 2.4-17.9.1 0-9.2-1.3-19.8-6.4z"/></g><radialGradient id="s" cx="206.882" cy="160.024" r="14.587" gradientUnits="userSpaceOnUse"><stop offset="0" stop-color="#484241"/><stop offset="1" stop-color="#383432"/></radialGradient><use xlink:href="#c" fill="url(#s)"/><linearGradient id="t" gradientUnits="userSpaceOnUse" x1="204.362" y1="148.215" x2="207.756" y2="148.215"><stop offset="0" stop-color="#a6a5b1"/><stop offset="1" stop-color="#a6a5b1" stop-opacity="0"/></linearGradient><path d="M204.5 143.6s3.8 3.8 3.2 9.1l-.1.2s0-5.6-3.2-8.9l.1-.4z" fill="url(#t)"/><linearGradient id="u" gradientUnits="userSpaceOnUse" x1="202.472" y1="126.684" x2="206.127" y2="126.684"><stop offset="0" stop-color="#a6a5b1"/><stop offset="1" stop-color="#a6a5b1" stop-opacity="0"/></linearGradient><path d="M202.6 125.3s1.2 1.8 3.5 2.7c0 0-2.2-.5-3.7-2.5l.2-.2z" fill="url(#u)"/><linearGradient id="v" gradientUnits="userSpaceOnUse" x1="203.96" y1="98.637" x2="207.627" y2="98.637"><stop offset="0" stop-color="#a6a5b1"/><stop offset="1" stop-color="#a6a5b1" stop-opacity="0"/></linearGradient><path d="M204.2 100s1.8-1 3.4-3.1c0 0-1.3 2.6-3.7 3.6l.3-.5z" fill="url(#v)"/><linearGradient id="w" gradientUnits="userSpaceOnUse" x1="208.893" y1="125.884" x2="210.865" y2="125.884"><stop offset="0" stop-color="#a6a5b1"/><stop offset="1" stop-color="#a6a5b1" stop-opacity="0"/></linearGradient><path d="M210.8 125.2s-.5.9-1.9 1.4c0 0 .9.1 2-1.1l-.1-.3z" fill="url(#w)"/><path d="M208.1 138.3s-1.3-4.7-.3-8.1c0 0-.6 4.6.5 7.9l-.2.2zm-1.3-28.4s-.7 7.8.9 11.4c0-.1-2.1-2.6-.9-11.4zm15.4-33.4s-2.2 9.9-6.9 14.9c0 .1 4.6-2.9 6.9-14.9z" class="Ai"/><linearGradient id="x" gradientUnits="userSpaceOnUse" x1="203.866" y1="165.45" x2="206.833" y2="165.45"><stop offset="0" stop-color="#a6a5b1"/><stop offset="1" stop-color="#a6a5b1" stop-opacity="0"/></linearGradient><path d="M203.9 162.3s-.5 3.1 2.9 6.4c0-.1-3.5-2.2-2.9-6.4z" fill="url(#x)"/><linearGradient id="y" gradientUnits="userSpaceOnUse" x1="288.728" y1="126.32" x2="297.969" y2="126.32"><stop offset="0" stop-color="#a6a5b1"/><stop offset="1" stop-color="#a6a5b1" stop-opacity="0"/></linearGradient><path d="M288.8 124.3s2.9 3.3 8.9 3.7l.2.3s-5.5.3-9.2-3.8l.1-.2z" fill="url(#y)"/><path d="M293.9 113s-.6 4.9-3.6 8.1c0 .1 3.1-1.7 3.6-8.1zm5.8-5.8s-5.3-4.5-5.2-8.9c0 0 .6 4.8 5.2 8.6v.3zm-7.7 35.1s3.8 4 2.5 8.7l.1-.1s1.9-4.1-2.7-8.9l.1.3zm.4 31.1s2.8 2.6 2.3 4.8c0 0 1.2-2.1-2.3-4.8zm-4.4-16.1s-.6 6.6 4 11c0 .1-4.9-3.6-4-11z" class="Ai"/><use xlink:href="#c" class="An"/><linearGradient id="z" gradientUnits="userSpaceOnUse" x1="212.565" y1="169.606" x2="214.812" y2="172.487"><stop offset="0" stop-color="#efa076"/><stop offset="1" stop-color="#ffddaf"/></linearGradient><path d="M216.6 172.5c-1.3-.4-3.1-1.6-4.3-2.4-.4-.3-.8-.2-1 0-.3.3-.3.9-.2 1.3.2.8 1.1 1.5 2.2 2.1.6.3 1.2.8 1.8 1.4 1.2-.5 2.4-.9 3.7-.9-.7-.8-1.5-1.3-2.2-1.5z" fill="url(#z)"/><linearGradient id="AA" gradientUnits="userSpaceOnUse" x1="211.059" y1="172.432" x2="215.558" y2="172.432"><stop offset=".008" stop-color="#ee9077"/><stop offset="1" stop-color="#ee9077" stop-opacity="0"/></linearGradient><path d="M213.8 173.2c-1.1-.6-2.5-1.8-2.5-3.1-.3.3-.3.9-.2 1.3.2.8 1.1 1.5 2.2 2.1.6.3 1.2.8 1.8 1.4.1-.1.3-.1.4-.2-.3-.6-.9-1.2-1.7-1.5z" fill="url(#AA)"/><path d="M237.3 195.5l-7.6 7.6L100.2 73.6c-2.8-2.8-3.3-6.7-1.2-8.8h0c2.1-2.1 6-1.5 8.8 1.2l129.5 129.5z" class="Af"/><path d="M233.5 199.3l-3.8 3.8L100.2 73.6c-2.8-2.8-3.3-6.7-1.2-8.8h0l134.5 134.5z" class="Ag"/><path d="M125.8 87.5l-43.9 43.9c-.7.7-2 0-1.6-1 11.1-31 35.9-52.6 35.9-52.6l9.6 9.7z" class="Al"/><path d="M125.8 87.5l-43.9 43.9c-.7.7-1.5.4-1.1-.5 15.3-26.9 39.3-49.1 39.3-49.1l5.7 5.7z" class="Am"/><path d="M127 86.3l43.9-43.9c.7-.7 0-2-1-1.6-31 11.1-52.6 35.9-52.6 35.9l9.7 9.6z" class="Al"/><path d="M127 86.3l43.9-43.9c.7-.7.4-1.5-.5-1.1-26.9 15.3-49.1 39.3-49.1 39.3l5.7 5.7z" class="Am"/><path d="M101.361 82.618l19.516-19.516 19.516 19.516-19.516 19.516z" class="Ap"/><path d="M105.24 78.738l15.627-15.627 13.93 13.93-15.627 15.627z" class="Aq"/><linearGradient id="AB" gradientUnits="userSpaceOnUse" x1="221.558" y1="187.532" x2="214.567" y2="178.421"><stop offset="0" stop-color="#efa076"/><stop offset="1" stop-color="#ffddaf"/></linearGradient><path d="M224.3 180.5c0-.1-.1-.1 0 0l-3.1-4.3c-.6-.8-1.4-1.6-2.2-2.3-1.3.1-1.5 0-2.8.6.3.3-.4 1-.1 1.3-.9-.3-2.2-.6-3.6-1.2-.2-.1-.3-.1-.5-.2-1.5-.7-3.4-2.6-4.3-3.8-.6-.9-1.5-.9-1.9-.4s-.4 1.3-.1 2.2c-.1 0-.1.1-.2.1h0c-.6.5-.7 1.8-.2 2.9 0 .1.1.2.1.3-.1.1-.1.1-.1.2-.3.8.2 2.6.6 3.2.1.1.1.2.2.2l1.4 1.6.5.5c.9 1 2.1 2.5 3.3 2.8s6.6 2.3 8.4 2.7c1.7.4 2.6.9 3.4 1.4 1.7-.8 4.2-2.8 4.3-5.8-1.6-.5-2.2-.9-3.1-2z" fill="url(#AB)"/><linearGradient id="AC" gradientUnits="userSpaceOnUse" x1="216.968" y1="177.071" x2="203.658" y2="189.814"><stop offset=".008" stop-color="#ee9077"/><stop offset="1" stop-color="#ee9077" stop-opacity="0"/></linearGradient><path d="M224.3 180.5c0-.1-.1-.1 0 0-1.4.7-3.1 2.3-4.2 3.9-1.3 1.9-8.8-.5-9.5-.8s-.7-.6-.5-.9c.2-.4-.5-.7-.6-1.3s.6-.7.4-1.4 0-1.5.4-1.7.3-.6.3-1.4c-.1-.7 1-2 1.9-2.3-.2-.1-.3-.1-.5-.2-1.5-.7-3.4-2.6-4.3-3.8-.6-.9-1.5-.9-1.9-.4s-.4 1.3-.1 2.2c-.1 0-.1.1-.2.1h0c-.6.5-.7 1.8-.2 2.9 0 .1.1.2.1.3-.1.1-.1.1-.1.2-.3.8.2 2.6.6 3.2.1.1.1.2.2.2l1.4 1.6.5.5c.9 1 2.1 2.5 3.3 2.8s6.6 2.3 8.4 2.7c1.7.4 2.6.9 3.4 1.4 1.7-.8 4.2-2.8 4.3-5.8-1.6-.5-2.2-.9-3.1-2z" fill="url(#AC)"/><linearGradient id="AD" gradientUnits="userSpaceOnUse" x1="212.313" y1="175.009" x2="218.216" y2="175.124"><stop offset=".008" stop-color="#ee9077"/><stop offset="1" stop-color="#ee9077" stop-opacity="0"/></linearGradient><path d="M216 175.7c0-.3 1.7-.6 1.5-1-.1.1-1.2-.4-1.3-.3.2.3-.5 1-.2 1.3z" fill="url(#AD)"/><path d="M205.6 172.3c-.1.1-.1.1-.2.1h0l.6 1.2c.3.6.7 1.2 1.2 1.6.5.5 1 .9 1.5 1.3l1.6 1.2-1.3-1.5-1.4-1.4c-.2-.2-.5-.4-.7-.7-.2-.2-.4-.5-.6-.8-.1-.3-.3-.7-.7-1zm-.4 3.1c0 .1.1.2.1.3-.1.1-.1.1-.1.2l.3.6 1 1.5 1.5 1.1 1.5.9-1.3-1.2c-.5-.4-.9-.8-1.2-1.2s-.7-.9-1.1-1.3c-.2-.2-.4-.4-.6-.7.1-.1 0-.1-.1-.2zm.8 4l1.4 1.6c.4.2.7.5 1.1.7s.8.4 1.2.5c-.3-.3-.6-.6-1-.9-.3-.3-.7-.6-1-.8-.3-.3-.7-.5-1.1-.7-.2-.1-.4-.3-.6-.4z" class="Ak"/><radialGradient id="AE" cx="218.331" cy="9.044" r="3.399" gradientTransform="matrix(0.9989 4.667271e-02 -4.667271e-02 0.9989 14.4774 123.7589)" gradientUnits="userSpaceOnUse"><stop offset=".008" stop-color="#ee9077"/><stop offset="1" stop-color="#ee9077" stop-opacity="0"/></radialGradient><circle cx="232.1" cy="143" r="3.4" opacity=".4" fill="url(#AE)"/><radialGradient id="AF" cx="247.289" cy="9.044" r="3.399" gradientTransform="matrix(0.9989 4.667271e-02 -4.667271e-02 0.9989 14.4774 123.7589)" gradientUnits="userSpaceOnUse"><stop offset=".008" stop-color="#ee9077"/><stop offset="1" stop-color="#ee9077" stop-opacity="0"/></radialGradient><circle cx="261.1" cy="144.3" r="3.4" opacity=".4" fill="url(#AF)"/><radialGradient id="AG" cx="233.694" cy="24.391" r="11.638" gradientTransform="matrix(0.9989 4.667271e-02 -4.667271e-02 0.9989 14.4774 123.7589)" gradientUnits="userSpaceOnUse"><stop offset=".454" stop-color="#563831"/><stop offset="1" stop-color="#38231d"/></radialGradient><path d="M232.1 142.5c4.1 3 9 4.8 14.4 5 5.4.3 11.1-.6 14.9-3.5-2.7 9.7-8.6 15.6-15.2 15.3-6.7-.3-12.9-8.2-14.1-16.8z" fill="url(#AG)"/><g class="Ak"><path d="M260 143.1c.4 0 .7.1 1.1.3.3.1.7.3 1 .6.3.2.6.5.8.8.1.2.2.3.3.5s.1.4.2.5c-.3-.3-.6-.5-.8-.7-.3-.2-.5-.5-.8-.7s-.5-.4-.8-.7c-.3-.1-.6-.3-1-.6z"/><path d="M232.1 142.5l3.5 1.7 3.6 1.3c2.4.7 4.9 1.2 7.4 1.2 2.5.2 5.1 0 7.6-.3 1.3-.2 2.5-.4 3.7-.8 1.2-.3 2.4-.9 3.5-1.5-2.1 1.6-4.6 2.4-7.1 2.9s-5.1.6-7.7.5c-5.2-.2-10.3-1.9-14.5-5z"/><path d="M230 143.9c.2-.4.5-.7.8-1a4.44 4.44 0 0 1 1.1-.8c.4-.2.8-.4 1.2-.5s.8-.2 1.3-.2l-1.1.6c-.4.2-.8.3-1.1.5l-1.1.6c-.5.3-.8.5-1.1.8z"/></g><radialGradient id="AH" cx="232.991" cy="25.471" r="4.479" gradientTransform="matrix(0.9989 4.667271e-02 -4.667271e-02 0.9989 14.4774 123.7589)" gradientUnits="userSpaceOnUse"><stop offset=".008" stop-color="#ee9077"/><stop offset="1" stop-color="#ee9077" stop-opacity="0"/></radialGradient><path d="M245.9 161.3c-2.3-.1-4.3-1.1-5.5-2.6v.1c-.1 3.1 2.3 5.8 5.4 5.9s5.8-2.3 5.9-5.4v-.1c-1.4 1.3-3.5 2.2-5.8 2.1z" fill="url(#AH)"/><linearGradient id="AI" gradientUnits="userSpaceOnUse" x1="245.991" y1="158.703" x2="246.06" y2="163.979"><stop offset="0" stop-color="#a6a5b1"/><stop offset="1" stop-color="#a6a5b1" stop-opacity="0"/></linearGradient><path d="M241.6 159.6c2.3 1.6 6.2 1.7 8.9.5-3 2.5-6.5 3.1-8.9-.5z" fill="url(#AI)"/><defs><path id="AJ" d="M232.1 142.5c4.1 3 9 4.8 14.4 5 5.4.3 11.1-.6 14.9-3.5-2.7 9.7-8.6 15.6-15.2 15.3-6.7-.3-12.9-8.2-14.1-16.8z"/></defs><clipPath id="AK"><use xlink:href="#AJ"/></clipPath><radialGradient id="AL" cx="232.81" cy="26.763" r="8.532" gradientTransform="matrix(0.9989 4.667271e-02 -4.667271e-02 0.9989 14.4774 123.7589)" gradientUnits="userSpaceOnUse"><stop offset=".47" stop-color="#fff"/><stop offset="1" stop-color="#a6a5b1"/></radialGradient><path d="M236.8 156.2c.9-.7 2.5-1.1 3.7-.4.6 1.9 3.8 2.5 6 2.7s4.9-1.5 5.4-1.9 2-.6 3 .2c-.5 2.7-11.4 5.6-18.1-.6z" fill="url(#AL)" class="Ar"/><radialGradient id="AM" cx="233.605" cy="24.595" r="4.998" gradientTransform="matrix(0.9989 4.667271e-02 -4.667271e-02 0.9989 14.4774 123.7589)" gradientUnits="userSpaceOnUse"><stop offset=".454" stop-color="#dd6162"/><stop offset="1" stop-color="#c04d4e"/></radialGradient><path d="M240 158c-.8-1.3.2-2.5 1.3-3s3.6-.4 5.1.6c1.8-1 4.3-.7 5.3.2 1 .8 1.7 2.1 0 3.4-1.8 1.3-7.7 3.3-11.7-1.2z" fill="url(#AM)" class="Ar"/><g class="Ar"><radialGradient id="AN" cx="233.143" cy="20.467" r="19.045" gradientTransform="matrix(0.9989 4.667271e-02 -4.667271e-02 0.9989 14.4774 123.7589)" gradientUnits="userSpaceOnUse"><stop offset=".47" stop-color="#fff"/><stop offset="1" stop-color="#a6a5b1"/></radialGradient><path d="M259.5 143.9l-1 4.7c-.1.6-.3 1.1-.4 1.6-.5 1.5-5.4 3.2-12.2 2.9-6.9-.3-10.9-3.6-11.1-4.5-.1-.3-.1-.7-.2-1.3l-.4-4.5c5.6-2.2 21.9-.3 25.3 1.1z" fill="url(#AN)"/><linearGradient id="AO" gradientUnits="userSpaceOnUse" x1="243.454" y1="131.992" x2="250.472" y2="159.472"><stop offset="0" stop-color="#a6a5b1"/><stop offset="1" stop-color="#a6a5b1" stop-opacity="0"/></linearGradient><path d="M259.5 144.2l-1 4.7c-1.4-1-2.6-1.1-4.2-.8-2.3.4-5.8.7-7.8.6s-3.9-.5-6.8-1.3c-1.9-.5-3.4-.5-5.1.2l-.4-4.5c5.5-2.1 21.8-.2 25.3 1.1z" fill="url(#AO)"/></g><path d="M221.7 268.4s-4.7 4.6-11.9 7.5c0 0-1.4.3-.4 1.6 0 0 3.9 4.8 18.7-2 0 0 1.2-.8 2-.1 0 0 8.7-.2 7.6-3.9l-11.1-3.6-2-1.7-2.9 2.2z"/><path d="M276.7 144.5c-.2-1-.4-2.1-1-3.1-.5-1.1-1.3-2.2-2.4-3-.3-.2-.6-.4-.8-.6-.3-.1-.6-.3-.8-.4a9.83 9.83 0 0 0-1.6-.5 15.04 15.04 0 0 0-2.9-.3l-2.6.1c-3.3.3-6.3 1.1-9.2 1.7l-4.2 1c-1.4.3-2.9.4-4.3.3-1.4 0-2.9-.2-4.3-.4s-2.9-.6-4.4-.9l-2.1-.5-2.1-.7-4.4-1.5c-1.6-.4-3.2-.8-5.3-.7-.5 0-1.1.1-1.7.2s-1.3.4-2 .7c-1.4.7-2.6 1.9-3.3 3.1a10.76 10.76 0 0 0-1.3 3.5c-.2 1.1-.2 2.1-.2 3.1a22.59 22.59 0 0 0 .9 5.3l1.6 4.7c.6 1.5 1.3 3 2.1 4.4l2.5 4.3 1.5 2.1a16.8 16.8 0 0 0 1.8 2.1l1.1 1c.2.2.4.3.7.5l.4.2.3.2c.8.5 1.7.9 2.5 1.3 1.6.7 3.2 1.3 4.8 1.7 3.2.9 6.4 1.4 9.7 1.6 3.3.1 6.6-.1 9.9-.8s6.8-1.8 9.9-4.1c.8-.6 1.5-1.2 2.2-1.9.2-.2.3-.4.5-.6l.4-.5c.3-.3.6-.7.8-1 1.1-1.4 2-2.8 2.8-4.2 1.6-2.9 2.9-6 3.7-9.3.4-1.7.7-3.4.7-5.2.3-1 .3-1.9.1-2.9zm-29.2 20.2c-11.7 0-19.3-9.3-21.6-13.6-2.4-4.6 1-10.3 6.9-8.2 4.5 1.7 13.6 2.9 13.6 2.9 16.7-.4 22.7-7.9 23.4 1.2.4 6.2-8.2 17.7-22.3 17.7z" class="An"/><path d="M258.4 271.6s-2.9 4.6-.8 10.7c0 0 .2.9 4 1.2 0 0 3.4.1 5.3-1.7 0 0 5.7-5.1 3.8-11.7l-4.9-3.6-6.4 2.9-1 2.2z"/><path d="M263.6 47.3l-3.7-4.7 6-4.7 7.2 1.5-9.5 7.9zm-3.1-4.6l3.2 4 8.5-7.1-6.1-1.2-5.6 4.3zm12.3-.7l-7.9 6.7 5.7 7.4z" fill="#fff"/><path d="M269.6 58.2l-4.9-6.5-8.1-10.2.6-5.1-5.4-1.1-2.6 19.6 5.4.9 1.2-8.5 7.8 9.9z" class="Al"/><path d="M263.3 37.6l-3.7-.7-.6 4zm-2.8 19.2l-3.1-4.2-.5 3.6z" fill="#fff"/><path d="M161.1 174l53.1 106.1H97.1L150.2 174c2.2-4.5 8.7-4.5 10.9 0z" class="Ah"/><path d="M155.7 174.6v105.5H97.1l53.4-106.7c1.3-2.6 5.2-1.7 5.2 1.2z" class="Af"/><path d="M126.5 162.1l59 118.1H60.6c-1.9 0-3.1-2-2.3-3.7l57.2-114.4c2.3-4.6 8.8-4.6 11 0z" class="Ah"/><path d="M121.1 162.6v117.5H59.9c-1.5 0-2.5-1.6-1.8-3L116 161.4c1.2-2.6 5.1-1.6 5.1 1.2z" class="Af"/><path d="M195.2 201.6l31.4 62.8c3.6 7.2-1.6 15.7-9.7 15.7H145l39.3-78.5c2.2-4.5 8.6-4.5 10.9 0z" class="Ah"/><path d="M189.7 202.2v77.9H145l39.6-79.2c1.2-2.5 5.1-1.6 5.1 1.3z" class="Af"/><path d="M92.7 201.6l39.3 78.5H60c-8.1 0-13.3-8.5-9.7-15.7l31.4-62.8c2.3-4.5 8.7-4.5 11 0z" class="Ah"/><path d="M87.2 202.2v77.9H60c-8.1 0-13.3-8.5-9.7-15.7L82.1 201c1.3-2.6 5.1-1.7 5.1 1.2z" class="Af"/><path d="M114.8 274.5h23.1v5.6h-23.1z" class="Ag"/><path d="M116.9 268.9H140v5.6h-23.1z" class="Af"/><path d="M133.002 263.279h-23.1v-5.6h23.1z" class="Ag"/><path d="M130.903 268.901h-23.1v-5.6h23.1z" class="Af"/><path d="M117.514 274.523h-23.1v-5.6h23.1z" class="Ag"/><path d="M115.315 280.145h-23.1v-5.6h23.1z" class="Af"/><path d="M143.6 274.5h23.1v5.6h-23.1z" class="Ag"/><path d="M145.7 268.9h23.1v5.6h-23.1z" class="Af"/><path d="M137.9 263.3H161v5.6h-23.1zm28.7 11.2h23.1v5.6h-23.1z" class="Ah"/><path d="M35.8 274.5h23.1v5.6H35.8z" class="Ag"/><path d="M41.7 268.9h23.1v5.6H41.7z" class="Ah"/><g class="Ag"><path d="M58.9 274.5H82v5.6H58.9z"/><path d="M64.2 268.9h23.1v5.6H64.2z"/></g><path d="M58.9 263.3H82v5.6H58.9z" class="Ah"/><path d="M56.2 257.7h23.1v5.6H56.2z" class="Ag"/><path d="M64.2 252.1h23.1v5.6H64.2z" class="Ah"/><path d="M245.9 202.9c-3.8-.4-10.1-3.5-13-5.4-1.7-1.1-3.6-2.4-5.5-4-.1-.1-.2-.2-.3-.2l-3.8-3.3c.1-.9.3-1.9.8-2.9 1-2.4 2.8-5 4.5-6.2.6.5 2.3 1.6 4.4 2.9 0 0 .1 0 .1.1 3.6 2.3 8.4 5.1 10.8 6.1 2.8 1.7 4.3 4.2 4.8 6.5.1.3.1.7.2 1 .3 3.1-1 5.7-3 5.4z" class="Aj"/><path d="M245.9 202.9c-3.8-.4-10.1-3.5-13-5.4-1.7-1.1-3.6-2.4-5.5-4-.1-.1-.2-.2-.3-.2l-3.8-3.3c.1-.9.3-1.9.8-2.9 7 5.8 14.4 9.9 17.9 11.5 2.5 1.1 4.9.4 6.9-1 .3 3-1 5.6-3 5.3z" class="Ai"/><path d="M233.1 184l-1.8 1.9c-.8.9-1.4 1.9-2 3-.6 1-1.1 2.1-1.5 3.3-.2.5-.3 1-.4 1.5-.1-.1-.2-.2-.3-.2 0-.5.1-.9.3-1.4.3-1.2.8-2.3 1.4-3.4s1.4-2.1 2.2-3a16.32 16.32 0 0 1 2-1.7c0-.1.1-.1.1 0zm15.6 12.6c-.6-2.7-2.5-5.1-4.8-6.5h0c-1.4-.6-2.7-1.3-4-2s-2.6-1.5-3.8-2.3l-3.8-2.4-3.7-2.5 3.9 2.2 3.9 2.2 3.9 2.2 3.9 2.1h0 0c1.2.8 2.3 1.8 3.1 3 .7 1.3 1.2 2.6 1.4 4z"/><path d="M228.6 180.9c-1.4 1.1-2.5 2.5-3.4 4.1-.5.8-.9 1.6-1.2 2.4s-.6 1.7-.7 2.6h0l5 4.3 5.4 3.8c1.9 1.1 3.9 2.1 5.9 2.9s4.1 1.6 6.3 1.9c-2.2-.2-4.4-.8-6.4-1.6-2.1-.8-4.1-1.7-6-2.8-3.8-2.3-7.3-5.1-10.5-8.1l-.2-.2v-.2c.1-1 .4-1.9.8-2.7s.8-1.6 1.3-2.4 1.1-1.5 1.7-2.2 1.2-1.3 2-1.8z"/><g class="Al"><path d="M110.6 271.2H36.9l-13.5-52.9h100.7z"/><path d="M36.9 271.2l-13.5-52.9h100.7z"/><path d="M126.1 220.6H21.4c-4.4 0-8-3.6-8-8h0c0-4.4 3.6-8 8-8h104.7c4.4 0 8 3.6 8 8h0c0 4.4-3.6 8-8 8z"/></g><g class="Am"><path d="M134.1 212.6h0c0 4.4-3.6 8-8 8H21.4c-4.4 0-8-3.6-8-8h0 120.7z"/><circle transform="matrix(.8201 -.5722 .5722 .8201 -145.7487 78.7708)" cx="52.4" cy="271.2" r="15.4"/></g><use xlink:href="#d" fill="#284f40"/><use xlink:href="#e" class="Ap"/><use xlink:href="#f" class="Aq"/><circle transform="matrix(.9444 -.3287 .3287 .9444 -83.8565 46.4384)" cx="95.4" cy="271.2" r="15.4" class="Am"/><use xlink:href="#d" x="42.9" fill="#284f40"/><use xlink:href="#e" x="43" class="Ap"/><use xlink:href="#f" x="43" class="Aq"/><path d="M53 238.7l-3.4-3.6 4.2-5.2h5.9l-6.7 8.8zm-3-3.6l2.9 3.1 6-7.9h-5l-3.9 4.8zm9.7-2.8l-5.5 7.5 5.6 5.9z" fill="#090b15"/><path d="M59.2 247.9l-4.8-5.3-7.5-7.9v-4.6h-4.3v17.8h4.3V240l7.2 7.9z" class="Al"/><g fill="#090b15"><path d="M51.7 230.1h-3v3.7zm-.1 17.8l-2.9-3.4v3.4z"/><use xlink:href="#g"/><use xlink:href="#g" x="16.6"/><path d="M108.6 234.8l-.8 2.1h-3.3v2.1h3.1l-.8 2.1h-2.3v2.1 2.1h-2.1v-4.1-2.1-4.1h6.2zm-20.3 5.9c-.3-.1-.6-.3-1-.5-.3-.2-.7-.5-.9-.9-.3-.4-.4-.8-.4-1.4 0-.8.3-1.6.9-2.2s1.3-.9 2.2-.9c.8 0 1.6.3 2.2.9s.9 1.3.9 2.2h-2.1c0-.3-.1-.5-.3-.7s-.4-.3-.7-.3-.5.1-.7.3-.3.4-.3.7c0 .4.1.6.4.8s.5.3.7.3c.1 0 .3.1.6.2s.7.2 1 .5c.4.2.7.5 1 .9s.4.8.4 1.4c0 .9-.3 1.6-.9 2.2s-1.3.9-2.2.9-1.6-.3-2.2-.9-.9-1.3-.9-2.2h2c0 .3.1.5.3.7s.4.3.7.3.5-.1.7-.3.3-.4.3-.7c0-.4-.2-.7-.5-.8s-.6-.2-.7-.3c0-.1-.2-.1-.5-.2zm-16.5-2l2.3-3.9h-2.6l-1.2 1.8zm.6 3.2h0l-3-4h0v-3.1h-2v10.3h2v-3.8l2.6 3.8h2.6zm-12.8 6.2H54l-7-7.7v7.7h-4.6v-18.2H47v4.7l7.5 7.9 5.1 5.6zm-5.4-.4h4.6l-4.5-5-7.6-8v-4.5h-3.9v17.5h3.9v-8.2l7.5 8.2z"/></g><path d="M40.9 201.9h11.5v2.8H40.9z" class="Ag"/><path d="M40.9 199.1h11.5v2.8H40.9z" class="Af"/><path d="M39 196.3h11.5v2.8H39z" class="Ah"/><path d="M25.5 201.9H37v2.8H25.5z" class="Ag"/><path d="M29.4 199.1h11.5v2.8H29.4z" class="Af"/><path d="M25.5 196.3H37v2.8H25.5z" class="Ah"/><path d="M52.5 201.9H64v2.8H52.5z" class="Ag"/><path d="M52.5 199.1H64v2.8H52.5z" class="Af"/><path d="M52.5 196.3H64v2.8H52.5z" class="Ah"/><path d="M64 201.9h11.5v2.8H64z" class="Ag"/><path d="M64 199.1h11.5v2.8H64z" class="Af"/><path d="M64 196.3h11.5v2.8H64z" class="Ah"/><path d="M75.6 201.9h11.5v2.8H75.6z" class="Ag"/><path d="M75.6 199.1h11.5v2.8H75.6z" class="Af"/><path d="M75.6 196.3h11.5v2.8H75.6z" class="Ah"/><path d="M51.2 193.5h11.5v2.8H51.2z" class="Ag"/><path d="M52.5 190.6H64v2.8H52.5z" class="Af"/><path d="M51.2 187.8h11.5v2.8H51.2z" class="Ah"/><path d="M64 193.5h11.5v2.8H64z" class="Ag"/><path d="M64 190.6h11.5v2.8H64z" class="Af"/><path d="M64 187.8h11.5v2.8H64z" class="Ah"/><path d="M60.3 185h11.5v2.8H60.3zm16.5 8.5h11.5v2.8H76.8z" class="Ag"/><path d="M75.6 190.6h11.5v2.8H75.6z" class="Af"/><path d="M76.8 187.8h11.5v2.8H76.8z" class="Ah"/><path d="M77 185h11.5v2.8H77z" class="Ag"/><path d="M75.6 182.2h11.5v2.8H75.6z" class="Af"/><path d="M73.8 179.4h11.5v2.8H73.8z" class="Ah"/><path d="M87.1 201.9h11.5v2.8H87.1z" class="Ag"/><path d="M87.1 199.1h11.5v2.8H87.1z" class="Af"/><path d="M87.1 196.3h11.5v2.8H87.1z" class="Ah"/><path d="M98.6 201.9h11.5v2.8H98.6z" class="Ag"/><path d="M100.4 199.1h11.5v2.8h-11.5z" class="Af"/><path d="M98.6 196.3h11.5v2.8H98.6z" class="Ah"/><path d="M90.9 193.5h11.5v2.8H90.9z" class="Ag"/><path d="M92.9 190.6h11.5v2.8H92.9z" class="Af"/><path d="M90.2 187.8h11.5v2.8H90.2z" class="Ah"/><radialGradient id="AP" cx="239.118" cy="82.458" r="5.739" gradientTransform="matrix(0.9892 0.1463 -0.1463 0.9892 22.1553 25.901)" gradientUnits="userSpaceOnUse"><stop offset=".008" stop-color="#ee9077"/><stop offset="1" stop-color="#ee9077" stop-opacity="0"/></radialGradient><circle cx="246.6" cy="142.4" r="5.7" fill="url(#AP)"/><linearGradient id="AQ" gradientUnits="userSpaceOnUse" x1="263.697" y1="151.121" x2="240.927" y2="131.127"><stop offset="0" stop-color="#efa076"/><stop offset="1" stop-color="#ffddaf"/></linearGradient><path d="M252.4 141.6c-1.3 1.3-3.5 2.4-6.4 2.3-1.7 0-3.4-.9-4.7-2.4-.9-1-1.5-2.3-1.7-3.8-.4-3.1 4.1-10.3 10.8-8.6-1.5 2.8-2.2 5.3-1.5 7.2s1.9 2.3 3.3 2.3c.6 0 .9.3 1.1.7.1.8-.1 1.6-.9 2.3z" fill="url(#AQ)"/><path d="M248.2 131.3c-.4.9-.6 1.8-.7 2.7s-.1 1.8.2 2.6.8 1.5 1.6 2c.7.5 1.6.8 2.5 1-.9.2-1.9 0-2.8-.5s-1.6-1.3-1.9-2.3-.2-2 0-2.9c.2-1 .6-1.8 1.1-2.6z" fill="#ffefca"/><linearGradient id="AR" gradientUnits="userSpaceOnUse" x1="247.514" y1="137.164" x2="246.852" y2="148.403"><stop offset=".008" stop-color="#ee9077"/><stop offset="1" stop-color="#ee9077" stop-opacity="0"/></linearGradient><path d="M252.4 141.6c-1.3 1.3-3.5 2.4-6.4 2.3-1.7 0-3.4-.9-4.7-2.4 4 .9 8.7.4 11.9-2.1.2.7 0 1.5-.8 2.2z" fill="url(#AR)"/><path d="M250.4 129.2l-.8 2.7c-.2.9-.4 1.8-.4 2.7s.2 1.7.7 2.3c.4.7.9 1 1.8 1h.7c.3 0 .7.1 1.1.4s.6.7.6 1.1c.1.4 0 .7-.1 1-.2.6-.5 1.1-.9 1.5s-.8.7-1.3.9c-.9.5-1.9.9-2.8 1-1 .1-2 .1-2.9 0 1.9 0 3.8-.4 5.4-1.5.8-.5 1.5-1.2 1.8-2.1.1-.4.1-1-.3-1.3s-.9-.2-1.4-.3c-.9-.1-1.9-.6-2.3-1.4-.5-.8-.7-1.8-.6-2.7 0-1.8.8-3.6 1.7-5.3z" class="Ak"/></svg>