<?xml version="1.0" encoding="utf-8"?>
<!-- Generator: Adobe Illustrator 24.1.3, SVG Export Plug-In . SVG Version: 6.00 Build 0)  -->
<svg version="1.1" id="Calque_1" xmlns="http://www.w3.org/2000/svg" xmlns:xlink="http://www.w3.org/1999/xlink" x="0px" y="0px"
	 viewBox="0 0 520 520" style="enable-background:new 0 0 520 520;" xml:space="preserve">
<style type="text/css">
	.st0{fill:#081928;}
	.st1{fill:#FFFFFF;}
	.st2{fill:#3CBDB2;}
</style>
<circle class="st0" cx="260" cy="260" r="259.8"/>
<g>
	<path class="st1" d="M303.2,262.4l-65.7-68.4l79.5-100h112.8L303.2,262.4z M246.4,193.7l56.2,58.5l113.9-151.4h-96.2L246.4,193.7z"
		/>
	<polygon class="st1" points="431.9,139.4 326.5,282.1 432.2,395.3 	"/>
	<polygon class="st2" points="421,437.9 329.6,336.5 186.2,185.5 186.2,97.4 105,97.4 105,437.9 186.2,437.9 186.2,286.5 
		324.5,437.9 	"/>
	<polygon class="st1" points="277.8,97.4 220.9,97.4 221.2,168.1 	"/>
	<polygon class="st1" points="276.7,437.9 220.4,373.4 220.8,437.9 	"/>
</g>
<path class="st1" d="M428.6,441.2H323L189.6,295.1v146.1h-87.9V94.1h87.9v90.1l142.5,150L428.6,441.2z M325.9,434.5h87.6l-86.4-95.8
	L182.9,186.9v-86.1h-74.5v333.8h74.5V277.8L325.9,434.5z"/>
</svg>
