<svg xmlns="http://www.w3.org/2000/svg" xmlns:xlink="http://www.w3.org/1999/xlink" viewBox="0 0 163 195.3" xmlns:v="https://vecta.io/nano"><style><![CDATA[.AX{enable-background:new}.AY{opacity:.53}.AZ{fill:#b26b51}.Aa{fill:#111319}.Ab{fill:#1e1b1b}]]></style><ellipse transform="matrix(.2561 -.9666 .9666 .2561 17.8608 107.0093)" cx="78.5" cy="41.9" rx="41.4" ry="40.4" fill="#2a2e35"/><path d="M158.5 64.2c0 .2-.6 2.3-.7 2.5-3.8 10.5-39.2 8.2-80.6-2.8C35.7 53 3.7 37.4 5.8 26.4c0-.1.6-2.4.7-2.5 2.9-11 39.3-10.8 81.3.3s73.6 29.1 70.7 40z" fill="#252830"/><ellipse transform="matrix(.2561 -.9666 .9666 .2561 15.8238 113.7064)" cx="81.8" cy="46.6" rx="20.5" ry="78.6" fill="#0b0c10"/><path d="M78.7 11.2l-2.2-2.8L80 5.7l4.2.9-5.5 4.6zm-1.9-2.7l1.9 2.4 5-4.2-3.6-.7-3.3 2.5zm7.3-.4L79.5 12l3.4 4.4z" fill="#fff"/><path d="M82.2 17.7l-2.9-3.9-4.8-6 .4-3-3.2-.7-1.5 11.6 3.2.5.7-5 4.6 5.9z" fill="#53b997"/><path d="M78.5 5.5L76.3 5 76 7.5zm-1.6 11.3L75 14.3l-.3 2.2z" fill="#fff"/><radialGradient id="A" cx="56.201" cy="12.505" r="5.596" gradientTransform="matrix(1 0 0 -1 0 196)" gradientUnits="userSpaceOnUse"><stop offset=".129" stop-color="#bdc9cb"/><stop offset=".584" stop-color="#abb6b8"/><stop offset="1" stop-color="#96a0a2"/></radialGradient><path d="M60.5 182.6l-.3 1v.4c.2 1.1 0 1.6-.1 2.7s-.4 2.7-3 2.9-6.6-2-5.2-3.9c.8-1.1 1.4-2.8 1.9-3.8.4-.7.9-2.7 1.3-3.8 2.6-2.1 5.3.4 6.3 1.5-.2 1-.6 2.1-.9 3z" fill="url(#A)"/><linearGradient id="B" gradientUnits="userSpaceOnUse" x1="57.35" y1="179.412" x2="59.985" y2="190.725"><stop offset="0" stop-color="#a6a5b1"/><stop offset="1" stop-color="#a6a5b1" stop-opacity="0"/></linearGradient><path d="M61.5 179.5c-.4 1.1-.8 2.1-1 3.1l-.3 1c-3.6 0-4.8-.6-6.4-1.7.4-.7.9-2.7 1.3-3.8 2.8-2.2 5.5.3 6.4 1.4z" fill="url(#B)"/><path d="M54.2 181c.2.3.6.5.9.7 2 1.1 5.6 1.1 7.9-.2.8-2.2 2.9-7.5 4.9-12.7h0c.1-.2.1-.3.2-.5h0l4.3-11.4 2.6-7.6c.6-1.5.2-4.1.6-5.7-1.2-.7-.9-.9-3.4-1.3-3-.6-6.4-.7-8.7 0-.4.8-1.8 7.6-3.1 12.9l-2.3 9.2c-.1.3-.1.5-.2.8h0L54.2 181z" class="Aa"/><path d="M86.9 145.8l-.4 2.5c-2.9.6-7 1.6-10.8 1.4-.4 0-6.5.7-8.6.9-1.9.2-3.4.6-4.7 4.4L59 165.1c-.3 1 0 3.1-.4 3.5-.5.4-.8 2.2-1.4 4.5l-2 8.5c-.4-.2-.7-.4-.9-.7.7-3.5 2.3-10 3.7-15.8h0c.1-.3.1-.5.2-.8l2.3-9.2c1.3-5.3 2.7-12.1 3.1-12.9 2.3-.8 5.7-.6 8.7 0 .5-.2 1.1-.4 1.7-.6 1.5-.4 3.1-.8 4.8-1 3.3.1 6.4 1.6 8.1 5.2z" class="AX AY"/><path d="M65.5 169.6c.4 0 .7-.1 1.1-.2s.7-.3 1-.5c.1-.1.2-.1.3-.2h0c.1-.2.1-.3.2-.5-.2.2-.4.3-.7.5s-.6.4-.9.5c-.4.1-.7.3-1 .4zm-7.6-4.5c0 .1 0 .1 0 0 0 .3.1.5.2.7s.2.5.3.7c-.1-.3-.1-.6-.1-.7-.1-.3-.1-.5-.1-.7-.1-.2-.1-.5-.1-.7h0c-.1.2-.2.5-.2.7z"/><linearGradient id="C" gradientUnits="userSpaceOnUse" x1="34.962" y1="112.951" x2="32.398" y2="109.34"><stop offset="0" stop-color="#efa076"/><stop offset="1" stop-color="#ffddaf"/></linearGradient><path d="M32.5 114.3c.8.6 3.1 3.1 3.4 3.6 1.2-.4 3.1-1.6 3.3-3.8-1.4-1.1-6.7-4.7-7.2-5-1 .6-.2 4.3.5 5.2z" fill="url(#C)"/><linearGradient id="D" gradientUnits="userSpaceOnUse" x1="27.583" y1="119.877" x2="24.575" y2="110.707"><stop offset="0" stop-color="#efa076"/><stop offset="1" stop-color="#ffddaf"/></linearGradient><path d="M32.9 114.6h0l-.2.2c-.1.1-.3.2-.4.3-.2.1-.3.2-.5.2-.9.4-2.1.6-2.6.7l-4.7.4c-.3 0-.6 0-.9.1h-.9-.5-1.7c-.8 0-1.2-.1-1.4-.3l-.1-.1s0-.1-.1-.1c-.1-.2 0-.4.2-.6H19h-.1 0c-.5 0-.8-.2-1-.5-.2-.2-.2-.5-.1-.8v-.1h0-.1 0c-.6 0-1.1-.4-1.1-.8h0 0c.1-.5.6-.9 1.7-1.2h.1v-.2c.2-1.1 1.8-1.4 3-1.7l3.6-.9c.6-.1 1.2-.4 1.9-.6.3-.1.6-.2 1-.2-.4-.4-1.5-.7-2.5-1.3-.9-.6-1.2-1.3-1.3-1.8v-.2c.1-.4.6-.8 1.1-.3.6.7 1.4 1.1 2.4 1.3 1 .3 1.7.1 2.6.5s1.7 1 2.3 1.7c.6 1.3.8 1.7.2 2.8h.1c.7.3 1.6 2.1.1 3.5z" fill="url(#D)"/><linearGradient id="E" gradientUnits="userSpaceOnUse" x1="24.071" y1="106.55" x2="27.888" y2="106.55"><stop offset=".008" stop-color="#ee9077"/><stop offset="1" stop-color="#ee9077" stop-opacity="0"/></linearGradient><path d="M27.9 108.2c-.4-.4-1.5-.7-2.5-1.3-.9-.6-1.2-1.3-1.3-1.8v-.2c.3.9 1 1.6 1.8 2.1 1.1.5 1.4.4 2 1.2z" fill="url(#E)"/><linearGradient id="F" gradientUnits="userSpaceOnUse" x1="26.894" y1="109.5" x2="29.131" y2="109.5"><stop offset=".008" stop-color="#ee9077"/><stop offset="1" stop-color="#ee9077" stop-opacity="0"/></linearGradient><path d="M29.1 110.7c-1.2-.1-2.3-1.4-2.2-2.2.3-.1.6-.2 1-.2-.1.7.3 1.6 1.2 2.4z" fill="url(#F)"/><linearGradient id="G" gradientUnits="userSpaceOnUse" x1="16.5" y1="113.5" x2="18.823" y2="113.5"><stop offset=".008" stop-color="#ee9077"/><stop offset="1" stop-color="#ee9077" stop-opacity="0"/></linearGradient><path d="M18.8 113.2c-.5.2-.9.4-1.1.7h-.1 0c-.6 0-1.1-.4-1.1-.8h0c.4.2 1.2.3 2.3.1z" fill="url(#G)"/><linearGradient id="H" gradientUnits="userSpaceOnUse" x1="17.851" y1="115" x2="20.098" y2="115"><stop offset=".008" stop-color="#ee9077"/><stop offset="1" stop-color="#ee9077" stop-opacity="0"/></linearGradient><path d="M20.1 114.8c-.5.1-.9.2-1.2.4h-.1c-.5 0-.8-.2-1-.4.4.1 1.1.2 2.3 0z" fill="url(#H)"/><linearGradient id="I" gradientUnits="userSpaceOnUse" x1="24.755" y1="111.587" x2="30.416" y2="120.737"><stop offset=".008" stop-color="#ee9077"/><stop offset="1" stop-color="#ee9077" stop-opacity="0"/></linearGradient><path d="M32.9 114.6h0l-.2.2c-.1.1-.3.2-.4.3-.2.1-.3.2-.5.2-.9.4-2.1.6-2.6.7l-4.7.4c-.3 0-.6 0-.9.1h-.9-.5-1.7c-.8 0-1.2-.1-1.4-.3l-.1-.1s0-.1-.1-.1c.5.2 1.2.2 2.4.1l4-.3c1.3-.1 2.2-.3 3.8-.5 1.7-.2 2.7-.8 3.3-1.5.5-.6.6-2.1-.4-2.6-.1-.1-.7-.3-.8-.4.4-.1 1.1 0 1.5.1.8.5 1.7 2.3.2 3.7z" fill="url(#I)"/><g class="AZ"><path d="M24.9 109.3c-.1.2-.1.5-.1.8s-.1.5-.1.8c-.1.5-.1 1-.1 1.5s.1 1 .2 1.5.3 1 .6 1.4a3.25 3.25 0 0 1-1-1.3 4.53 4.53 0 0 1-.3-1.6c0-.5.1-1.1.2-1.6.1-.3.1-.5.2-.8.2-.2.3-.5.4-.7z"/><path d="M24.8 110.4h0c-.1 0-.2.1-.3.1-.5.2-1 .3-1.6.5s-1.3.3-1.9.4l-1.9.3c-.3 0-.6.1-.8.1h.1v-.2c.2-.1.4-.1.6-.2.6-.2 1.3-.3 1.9-.4l1.9-.3c.5-.1 1.1-.2 1.7-.2.1-.1.2-.1.3-.1h0zm-.2 2c-.1 0-.3.1-.4.1l-1.5.3c-.7.1-1.3.3-1.9.4l-1.9.4c-.4.1-.8.2-1.2.4v-.1h-.1c.3-.3.8-.6 1.2-.7.6-.2 1.3-.4 1.9-.5l1.9-.3c.5 0 1-.1 1.5-.1.2.1.4.1.5.1zm.1 1.7h-.1c-.5.2-1 .3-1.4.4l-1.6.3c-.5.1-1.1.1-1.6.2-.3 0-.6.1-.9.2h-.2c.3-.3.7-.5 1-.6l1.6-.3c.5-.1 1.1-.1 1.6-.2.5 0 1-.1 1.5 0h.1zm3.3-2c.3-.3.6-.6 1-.8s.8-.4 1.2-.5.9-.2 1.3-.1c.4 0 .9.2 1.3.4-.4-.1-.8-.1-1.3-.1-.4 0-.8.1-1.2.2s-.8.3-1.2.4-.7.3-1.1.5z"/></g><radialGradient id="J" cx="77.466" cy="11.393" r="5.068" gradientTransform="matrix(1 0 0 -1 0 196)" gradientUnits="userSpaceOnUse"><stop offset=".129" stop-color="#bdc9cb"/><stop offset=".584" stop-color="#abb6b8"/><stop offset="1" stop-color="#96a0a2"/></radialGradient><path d="M76.7 190.2c-2.6-.2-2.8-1.8-3-2.9 0-.2 0-.3-.1-.4-.1-.8-.2-1.3 0-2.3.1-.4.1-.9.2-1.5l-.1-3.1c.6-.4 1.6-.9 2.7-1.1h0c.7-.1 1.4-.1 2 .1s1.2.7 1.7 1.4l.3 2.9h0c.2.7.4 1.2.7 1.9l.7 1.1c1.4 1.9-2.5 4.1-5.1 3.9z" fill="url(#J)"/><linearGradient id="K" gradientUnits="userSpaceOnUse" x1="76.578" y1="180.403" x2="78.907" y2="188.215"><stop offset="0" stop-color="#a6a5b1"/><stop offset="1" stop-color="#a6a5b1" stop-opacity="0"/></linearGradient><path d="M81.3 185.2h-.5c-.7-1.7-1.5-1.7-3.1-1.7-1.4.1-2.8-.1-3.9-.5l-.1-3.1c.6-.4 1.6-.9 2.7-1.1h0c.7-.1 1.4-.1 2 .1s1.2.7 1.7 1.4l.3 2.9h0c.3.8.5 1.4.9 2z" fill="url(#K)"/><path d="M86.9 145.8l-.4 2.5c0 .2-.1.3-.1.5l-2.9 17.6c-.8 4.7-2 14-2.3 15.6-1.3.8-4.8.7-7.2-.1-.5-.1-.9-.3-1.3-.5 0-.4.1-.8.1-1.3 0-.2.1-1.5.1-1.8v-.3c0-.4.1-.7.1-1.1l.3-4.1c0-.7.1-1.3.1-2l.3-4.2v-.2l.1-1v-.1l.5-9.4h0v-3-2.5-.6-1c0-2.4-.1-4.8-.1-6.1v-.1-.8-.2c.3-.1.5-.2.8-.3a13.86 13.86 0 0 1 4-.6c3.1 0 6.2 1.5 7.9 5.1z" class="Aa"/><path d="M75.1 161.5c-.2 2.1.2 3.9 1.6 4.8-.7 0-2.4.1-2.1.4.4.3 1 1.1 2.6 2.3-1-.4-2.8-1.3-2.9-.4s-.4 9.6-.5 13.4c-.5-.1-.9-.3-1.3-.5 0-.4.1-.8.1-1.3 0-.2.1-1.5.1-1.8v-.3c0-.4.1-.7.1-1.1l.3-4.1c0-.7.1-1.3.1-2l.3-4.2v-.2l.1-1v-.1l.5-9.4h0v-3-2.5-.6-1l-.1-6.1v-.1c1.5-1.4 4.6 1.5 3.9 3.3-.3.7-1.8 7.2-2 8.1-.3.8-.5 5.3-.8 7.4z" class="AX AY"/><path d="M73.6 166.4v.2h0c.1.1.2.3.4.4.3.3.6.5.9.7a4.67 4.67 0 0 0 1 .5c.3.1.7.3 1.1.3l-1-.6-.9-.6-.9-.6c-.2 0-.4-.1-.6-.3zm.1-1.2v.1l.3.3c.2.2.5.3.7.4s.5.2.8.2h.8c-.3-.1-.5-.2-.7-.2-.2-.1-.5-.2-.7-.3s-.5-.2-.7-.3-.4-.1-.5-.2z"/><path d="M102.2 124c-.2.3-.3.5-.5.7-2.3 2.6-6.9 1.5-8.6.9-1.9-.6-2.1-1.5-2.8-1.7-.6-.2-1.4-.7-1.7-1.1-.1-.1-.3-.2-.6-.4-.1-.1-.2-.1-.3-.2-.9-.6-2.3-1.3-3-1.7h-.1c0-.1-.1-.2-.1-.3-.3-.8-.6-2-.8-3.4-.4-2.1-.8-4.8-.9-7.1v-.9c2.4 1.2 8.3 4.9 10.9 6.7 1 .7 2.5 1.7 4 2.9 2.1 1.8 4.2 3.8 4.5 5.6z" class="Aa"/><linearGradient id="L" gradientUnits="userSpaceOnUse" x1="78.484" y1="108.165" x2="102.943" y2="119.311"><stop offset="0" stop-color="#68a38c"/><stop offset="1" stop-color="#68a38c" stop-opacity="0"/></linearGradient><path d="M97.7 118.4c-4.6-2.8-12.3-7.6-14.4-8.6-.1-.1-.3-.1-.4-.2v-.9c2.4 1.2 8.3 4.9 10.9 6.7.9.9 2.4 1.9 3.9 3z" fill="url(#L)"/><path d="M101.7 124.7c-2.3 2.6-6.9 1.5-8.6.9-1.9-.6-2.1-1.5-2.8-1.7-.6-.2-1.4-.7-1.7-1.1-.1-.1-.3-.2-.6-.4-.1-.1-.2-.1-.3-.2-.9-.6-2.3-1.3-3-1.7h-.1c0-.1-.1-.2-.1-.3-.3-.8-.6-2-.8-3.4l.7-.7c.4 2 .7 3 1.6 2.8s2.5-.9 2.9-1.4c-.4.9-1.6 2.2-2 2.7s.3 1.2 1.2 1.1 2.5-.8 2.5-.8c-1.1 1.1-1.2 1.9-.6 2.3s1.2.5 1.6.9c.3.4.8-.5 1.6-1.3s2.4-1.2 2.9-1c-1.4.6-2.4 1.6-2.7 2.4 1-.6 3.6-2.1 6.8-.7.6.4 1.1 1 1.5 1.6z" class="AX AY"/><path d="M96.1 121.4a3.08 3.08 0 0 0-1.3.3c-.4.2-.8.4-1.2.7-.3.3-.6.7-.9 1.1l-.3.6c-.1.2-.1.4-.1.7l.3-.6c.1-.2.2-.4.3-.5.2-.3.5-.7.9-.9.3-.3.7-.5 1-.8.5-.3.9-.5 1.3-.6zm-11.5-1.2c0 .1.1.2.1.3h.1c.5-.1 1-.3 1.4-.6.6-.3 1.1-.6 1.5-1.1.5-.4.9-.9 1.2-1.4-.4.4-.9.8-1.4 1.2-.5.3-1 .7-1.6.9-.3.4-.8.6-1.3.7zm3.2 2c.1.1.2.1.3.2l.8-.5c.3-.2.6-.5.9-.7s.6-.5.9-.7c-.3.2-.7.3-1 .5l-1 .6c-.4.2-.7.4-.9.6z"/><path d="M60.3 108.5c0 .4 0 .8-.1 1.2-.2 3-.8 6.4-1.3 8.6-.1.6-.3 1.2-.4 1.6 0 .1-.1.2-.1.3h-.1l-3 1.7c-.1.1-.2.1-.3.2l-.6.4c-.3.4-1.1.9-1.7 1.1-.7.2-.9 1-2.8 1.7-1.9.6-7.1 1.9-9.1-1.6.6-3 6-6.6 8.5-8.4 2.7-1.9 8.6-5.6 11-6.8z" class="Aa"/><path d="M44.3 120.8c-1 1.3 1 .9 1.9 1s3.2 1.1 3.7 2.5c.8.1.2-1.3-.1-1.7.9.8 1.7 1.4 2.2.9s.9-.8 1.4-.9.4-1.6 0-1.9c1.6.6 1.3.8 2.1.3s.8-.5 1.5-.6c.6-.1 0-.8-.8-1.5 1 .3 2.2 0 2.9-.6-.1.6-.3 1.2-.4 1.6 0 .1-.1.2-.1.3h-.1l-3 1.7c-.1.1-.2.1-.3.2l-.6.4c-.3.4-1.1.9-1.7 1.1-.7.2-.9 1-2.8 1.7-1.9.6-7.1 1.9-9.1-1.6.6-3 6-6.6 8.5-8.4 2.6-1.8 8.5-5.6 10.9-6.7 0 .4-.2 1.1-.3 1.5-2 1.1-3.8 2-5.3 3-2.5 1.4-9.5 6.4-10.5 7.7z" class="AX AY"/><path d="M58.5 119.9c0 .1-.1.2-.1.3h-.1c-.5-.1-1-.3-1.4-.6-.6-.3-1.1-.6-1.5-1.1-.5-.4-.9-.9-1.2-1.4.4.4.9.8 1.4 1.2.5.3 1 .7 1.6.9a2.73 2.73 0 0 0 1.3.7zm-3.2 2c-.1.1-.2.1-.3.2l-.8-.5c-.3-.2-.6-.5-.9-.7s-.6-.5-.9-.7c.3.2.7.3 1 .5l1 .6c.4.2.7.4.9.6z"/><path d="M71.1 105.5c-2.1.2-3.2.4-4.5.7-1.2.3-4.1 2.2-4.5 6.5s.8 34.3 1.4 35.1c4.5.8 14-.8 16.4-1.4 1.7-6.3-.3-31.6-.1-34.4.3-2.8-1.7-4.6-3.4-5.3s-3.2-1.4-5.3-1.2z" fill="#53b997"/><path d="M65.5 108.1c.7 1.1 1.6 2 2.7 2.6s2.4.9 3.6.8 2.4-.6 3.5-1.3c1-.7 1.9-1.7 2.3-2.9-.4 1.2-1.1 2.3-2.2 3.2-1 .8-2.3 1.4-3.6 1.5s-2.7-.2-3.8-.9c-1-.8-2-1.8-2.5-3z" fill="#ba5c28"/><path d="M87.6 146.4c-.7 0-7.3 5.6-13.5 12.3-.3-.9 3.9-14.5 3.1-18.8l-.6-3h0v-.1c-.1-.4-.2-.8-.2-1.1-1.1-4.5-1-20-.4-23.7.8-1.9 1.6-5.2 1.6-5.2l-1-1.8-3.7.2-4.1.3-2.3.1-.6 3.8s.7.6 1.5 2.9c.4 2.6.1 33.5 4.2 47.3-.8.2-5.5-9.3-8.4-9.5-.8-.1-1.5-.2-2.1-.4-.2-1.2-.5-6.4-1.9-13.2-1.2-5.9-.7-15-.6-16.1v-.5c0-.7.1-1.3.2-2 0-.3.1-.7.1-1s.1-.6.1-1c.1-1.2.3-2.4.5-3.6.3-1.6.6-3 1-3.6 1-.6 2.1-1.4 3.2-1.8.8-.3 2.6-2 4.8-3 1-.5 2.1-.8 3.1-.7 1.7 0 3 .3 4 .8 1.3.6 2 1.5 2.3 2.6l5.1 2.5c.1.3.3.7.4 1 .3.8.5 1.6.6 2.5.1.3.1.7.2 1 0 .2.1.5.1.8l.3 2.3c.1.7.1 1.4.2 2.1v.9h0v1 .7h0v.4h0c-.1 2.7-.6 7.9-.1 10v.1c.1.2.1.5.2.8.2.7.3 1.6.5 2.5.4 1.8.8 3.9 1.2 6.2l1 5z" fill="#202228"/><path d="M83.2 109.9c-1.1-.2-1.9-.1-1.5.5 0 0-1.8.3-2.7.3-1 0-2.6 18.7-3.4 19.5.1-1.2-.5-18.3.2-18.3 0 0 1.9-4.9 1.6-5.2l-1-1.8-3.7.2-.4-.8 3.1-.6c1.3.6 2 1.5 2.3 2.6l5.1 2.5c.2.4.3.7.4 1.1z" class="AX AY"/><path d="M62.8 144.8c.2 1.2-.1 3.3.2 5.1-.8-.1-1.5-.2-2.1-.4-.2-1.2-.5-6.4-1.9-13.2-1.2-5.9-.7-15-.6-16.1.1-.1 0-.3 0-.5.8 1.8 1.7 4 2.3 5.7 1 3.1 3.8 7.3 5 8.2-1.4-.2-4.8-3.2-6.2-6.7 1.4 5.2 3.6 11.7 4.5 13.3s2.6 3.2 3.6 3.4c-1.7 0-3.4-.9-4.2-1.5-.8-.7-1 .5-.6 2.7zm1.2-32.9c-1.1 3.7 2.9 16.9 3.6 17.5-.1-1 .5-18.7-1.9-20.1l.6-3.8 2.3-.1-.3-1.7c-2.2 1-4 2.7-4.8 3a24.28 24.28 0 0 0-3.2 1.8c-.2.4-.5 1-.6 1.7.1-.1.1-.1.2-.1.7-.2 3.7 1.6 4.1 1.8z" class="AY"/><path d="M58.8 122.2l1.2 3.1 1.3 3c.5 1 1.1 1.9 1.7 2.8.7.9 1.4 1.7 2.3 2.3-1-.6-1.8-1.3-2.6-2.1a13.79 13.79 0 0 1-1.9-2.8c-.5-1-.9-2-1.3-3.1l-.7-3.2zm-.4 3.4l.3 1.9c.1.6.2 1.3.4 1.9.1.6.3 1.3.5 1.9l.6 1.9c-.3-.6-.7-1.1-.9-1.8-.2-.6-.5-1.2-.6-1.9-.2-.6-.3-1.3-.3-2-.1-.6-.1-1.2 0-1.9zm24.5 6.9c-.3.7-.8 1.3-1.3 1.8s-1.2 1-1.8 1.4c-.7.4-1.4.7-2.1.9l-1 .3v-.2c.3-.1.7-.2 1-.4l2-.9c.7-.4 1.3-.8 1.8-1.2l1.4-1.7zm1.9 0c0 .4-.1.8-.2 1.2l-.7 1.8c-.3.6-.8 1.1-1.2 1.5.4-.5.7-1 1-1.6s.5-1.2.6-1.8.3-1.2.3-1.9v-.2.1c0 .4.1.6.2.9zm-21.6 7.8c.3.3.6.7 1 1 .3.3.7.6 1 .9l1.1.8 1.3.6c-.2 0-.5-.1-.7-.1-.2-.1-.5-.1-.7-.2-.4-.2-.8-.4-1.2-.7a4.74 4.74 0 0 1-1-1l-.8-1.3zm21.5-19.8l-.2-4.1c-.1-1.4-.3-2.7-.6-4.1.3.6.5 1.3.6 2a7.47 7.47 0 0 1 .3 2c.1.7.1 1.4.1 2.1l-.1 1c0 .4 0 .8-.1 1.1zm-25.5-8.3l-.9 8c-.1-.7-.1-1.4-.1-2 0-.7 0-1.3.1-2l.3-2 .2-1c.2-.4.3-.7.4-1z"/><path d="M76.9 120.8l6.7-.2v6.8l-3 1.6-3.8-1.4z" fill="#202228"/><path d="M76.9 120.8l6.7-.2c-.6.2-1.1.3-1.7.3-.6.1-1.1.1-1.7.1h-1.7l-.8-.1c-.3 0-.5-.1-.8-.1zm7.8.4v.4h0c-.1.2-.1.4-.2.6-.2.4-.3.9-.6 1.3a4.74 4.74 0 0 1-1 1 3.79 3.79 0 0 1-1.3.6 4.44 4.44 0 0 0 1.1-.8c.3-.3.6-.6.9-1s.4-.8.6-1.2c.2-.3.3-.6.5-.9z"/><radialGradient id="M" cx="72.01" cy="83.044" r="10.531" gradientTransform="matrix(1 0 0 -1 0 196)" gradientUnits="userSpaceOnUse"><stop offset=".33" stop-color="#6cbd45"/><stop offset=".464" stop-color="#63bc46"/><stop offset=".678" stop-color="#4cb847"/><stop offset=".946" stop-color="#26b24a"/><stop offset="1" stop-color="#1db14b"/></radialGradient><path d="M81.1 110.1c-.7-.1-2.5-.2-3.3-.1-.2 0-.4.1-.6.2-.5.3-.9.8-1.5 1.7.3-1.3.7-3.9.6-5.2-1.5-1.6-7.5-2.1-9.8-.5 0 .9 0 3.5.6 6-.3-.4-1-2.3-1.5-2.4-.4-.1-1.6-.1-3.7 0h0l1.8-3.6c1-1.9 2.1-3.7 3.2-4.2s2.4-.8 4.5-.7c1.3 0 2.5 0 3.6.3s1.7.6 2.2 1.5l2 3.7c0 .1.1.2.2.3.7 1 1.3 2 1.7 3z" fill="url(#M)"/><linearGradient id="N" gradientUnits="userSpaceOnUse" x1="70.594" y1="96.195" x2="70.885" y2="118.756"><stop offset="0" stop-color="#68a38c"/><stop offset="1" stop-color="#68a38c" stop-opacity="0"/></linearGradient><path d="M76.7 105.5l.7 4.7c-.5.3-.9.8-1.5 1.7.3-1.3.7-3.9.6-5.2-1.5-1.6-7.5-2.1-9.8-.5 0 .9 0 3.5.6 6-.8-1.8-1.2-5.3-1.4-6.9-.5.4-2.6 2.6-3.8 4.5h0l1.8-3.6c1-1.9 2.1-3.7 3.2-4.2s2.4-.8 4.5-.7c1.3 0 2.5 0 3.6.3s1.7.6 2.2 1.5l2 3.7c-.9-.5-2-1.1-2.7-1.3z" fill="url(#N)"/><path d="M75.8 111.9c.3-.4.6-.8 1-1.2.3-.4.8-.7 1.3-.7 1-.1 2 0 3.1.1h0l-1.6-3c.4.4.7.9 1 1.4l.9 1.4.3.5h-.6c-.5 0-1 0-1.5-.1h-1.5c-.4 0-.8.2-1.2.5l-1.2 1.1zm-12-5.7l-.9 1.8-.9 1.8h0c1.1-.1 2.2-.2 3.3-.1.1 0 .3 0 .4.1.1 0 .2.2.3.3.2.2.3.5.4.7.3.5.5 1 .7 1.5-.4-.4-.6-.9-.9-1.4-.1-.2-.3-.5-.4-.6l-.1-.1h-.4-1.6l-1.6.1h-.7l.3-.6 1-1.8c.3-.6.7-1.2 1.1-1.7z" fill="#277138"/><linearGradient id="O" gradientUnits="userSpaceOnUse" x1="71.55" y1="101.556" x2="71.55" y2="107.978"><stop offset="0" stop-color="#efa076"/><stop offset="1" stop-color="#ffddaf"/></linearGradient><path d="M76.4 106.7c-1 1.7-3.8 2.8-5.2 2.8-1.2 0-3.3-1-4.2-2.5-.2-.2-.3-.5-.3-.8.2-.5.3-1.4.4-2.6.1-1.7 0-3.9 0-5.6 1-.9 2.7-1.5 4.4-1.5h.7c1.4.1 2.8.7 4 1.8-.1 1.9-.1 3.6 0 5.1 0 .7 0 1.2.1 1.8-.1.7 0 1.2.1 1.5z" fill="url(#O)"/><linearGradient id="P" gradientUnits="userSpaceOnUse" x1="71.086" y1="95.153" x2="71.862" y2="116.064"><stop offset=".008" stop-color="#ee9077"/><stop offset="1" stop-color="#ee9077" stop-opacity="0"/></linearGradient><path d="M76.1 105.1c-3.1 1.5-6.7 2.3-9.2 1.9-.2-.2-.3-.5-.3-.8.2-.5.3-1.4.4-2.6.1-1.7 0-3.9 0-5.6 1-.9 2.7-1.5 4.4-1.5h.7c1.4.1 2.8.7 4 1.8-.1 1.9-.1 3.6 0 5.1-.1.6 0 1.2 0 1.7z" fill="url(#P)"/><linearGradient id="Q" gradientUnits="userSpaceOnUse" x1="85.461" y1="132.031" x2="77.954" y2="145.595"><stop offset="0" stop-color="#68a38c"/><stop offset="1" stop-color="#68a38c" stop-opacity="0"/></linearGradient><path d="M86.6 141.2c-.4 0-.8-.1-1.1-.1h-.1c-.7 0-2.3.2-2.7.2l-1.7.4c-.5.1-1 .1-1.3-.1h0c-.1-.1-.2-.3-.1-.5h0c0-.1 0-.1.1-.2h-.1 0c-.9.3-1.6.1-1.8-.2v-.1c-.2-.3-.1-.5-.1-.7v-.1h-.1-.3c-.3 0-.6-.1-.7-.2s-.2-.2-.2-.3c-.2-.3 0-.7.1-.9l.3-.3h-.1l-.3-.3c-.1-.3-.1-.6.2-.9 0 0 .1-.1.2-.1.5-.4 1.5-.8 2.1-1.2.7-.4 1.4-.7 2.1-.8l1.9-.3h.6c.7.1 1.6.3 2 .5h.1c.1 1.8.5 4 1 6.2z" fill="url(#Q)"/><path d="M93.4 136.2c-.1 1-.3 2.8-.6 3.2s-1.6-.2-3.1-1.4-2.5-2.6-2.2-3.4 2.4-1.5 3.5-.6l2.4 2.2z" fill="#1a8944"/><linearGradient id="R" gradientUnits="userSpaceOnUse" x1="86.67" y1="142.613" x2="84.115" y2="136.726"><stop offset="0" stop-color="#efa076"/><stop offset="1" stop-color="#ffddaf"/></linearGradient><path d="M75.5 138.9c.1.1.1.2.2.3.2.2.6.2 1.1.2h.1v.1c0 .2-.1.4.1.7v.1c.2.3.9.5 1.8.2h0 .1c0 .1-.1.1-.1.2h0c0 .2 0 .4.1.5h0c.2.2.8.3 1.3.1l1.7-.4c.3-.1 2-.3 2.7-.2h.1c.7.1 1.9.2 3.1.1 1.1-.2 1.6-.8 2.3-1.6l2.4-2.6c.2-.9.2-1.6.1-2.2-.3-1.4-1.4-2-2.7-2.4-.1.1-.2.2-.3.5l-1.8 2.7-.2.2c-.1 0-.2-.1-.3-.1h0l-2.8-.7c-.4-.1-1.3-.4-2-.5h-.6l-1.9.3c-.8.1-1.5.3-2.1.8-.8.5-1.9 1-2.3 1.4-.3.3-.3.6-.2.9l.3.3h.1c-.1 0-.2.1-.3.3 0 .1-.1.5 0 .8z" fill="url(#R)"/><linearGradient id="S" gradientUnits="userSpaceOnUse" x1="80.341" y1="132.996" x2="90.562" y2="137.622"><stop offset=".008" stop-color="#ee9077"/><stop offset="1" stop-color="#ee9077" stop-opacity="0"/></linearGradient><path d="M82.6 134c.3.2.5.5.5.7a1.22 1.22 0 0 0 .6.9c.3.2.3.5.3.8s0 .5.3.9.3.5.3.9 0 .4.3.7.3.8.2 1.1l-.3.6h.1c.7.1 1.9.2 3.1.1 1.1-.2 1.6-.8 2.3-1.6l2.4-2.6c.2-.9.2-1.6.1-2.2-.3-1.4-1.4-2-2.7-2.4-.1.1-.2.2-.3.5l-1.8 2.7-.2.2c-.1 0-.2-.1-.3-.1h0l-2.8-.7c-.6-.1-1.4-.4-2.1-.5z" fill="url(#S)"/><linearGradient id="T" gradientUnits="userSpaceOnUse" x1="86.017" y1="137.809" x2="89.866" y2="144.052"><stop offset=".008" stop-color="#ee9077"/><stop offset="1" stop-color="#ee9077" stop-opacity="0"/></linearGradient><path d="M79.1 141.1c.2.2.8.3 1.3.1l1.7-.4c.4-.1 2.1-.3 2.8-.2s1.9.2 3.1.1c1.1-.2 1.6-.8 2.3-1.6l2.4-2.6c.2-.9.2-1.6.1-2.2l-1.5-1.3s-.8-.4-1.5-.6l-1.8 2.7c.9.4 1.9 1.5 2.3 2.7-.5.9-1.2 1.4-2.2 2-.9.6-3.2.3-4 .4-.9.1-1.5.2-2.3.4s-2.2.6-2.7.5z" fill="url(#T)"/><linearGradient id="U" gradientUnits="userSpaceOnUse" x1="79.739" y1="138.693" x2="80.887" y2="140.844"><stop offset=".008" stop-color="#ee9077"/><stop offset="1" stop-color="#ee9077" stop-opacity="0"/></linearGradient><path d="M77.1 140.2h0c.2.4.9.6 1.8.3h0 .1c.8-.6 1.9-.9 2.4-1l2-.4c-1.5 0-2.9.1-3.3.2s-1.1.6-1.6.9c-.3.1-1.1.2-1.4 0z" fill="url(#U)"/><linearGradient id="V" gradientUnits="userSpaceOnUse" x1="79.036" y1="137.046" x2="80.006" y2="140.102"><stop offset=".008" stop-color="#ee9077"/><stop offset="1" stop-color="#ee9077" stop-opacity="0"/></linearGradient><path d="M77.5 138.5c-.5.3-1.2.7-1.7.7.2.2.6.2 1.1.2h.1c.6-.4 2.2-1.1 2.5-1.3.8-.2 3.3-.6 3.6-.6-1.7 0-3.2.1-3.6.2-.4 0-1.3.4-2 .8z" fill="url(#V)"/><linearGradient id="W" gradientUnits="userSpaceOnUse" x1="78.176" y1="135.268" x2="79.324" y2="138.373"><stop offset=".008" stop-color="#ee9077"/><stop offset="1" stop-color="#ee9077" stop-opacity="0"/></linearGradient><path d="M75.5 137.4l.3.3h.1l2.7-1.4c.4-.1 3-.6 3.2-.6-1.5 0-3 .2-3.3.3s-1.3.5-1.8.9c-.4.2-.8.5-1.2.5z" fill="url(#W)"/><path d="M75.7 138c.4-.2.8-.3 1.3-.5l.8-.3c.3-.1.5-.2.8-.4.5-.3 1.1-.4 1.6-.6l1.7-.5c-.6.1-1.2.1-1.8.2s-1.2.2-1.8.4c-.3.1-.5.3-.8.4s-.5.3-.8.4l-.9.6h.1c-.1.1-.2.2-.2.3zm1.3 1.3v.1c.4-.2.7-.4 1.1-.5.3-.1.5-.2.8-.4l.8-.3c.5-.1 1.1-.2 1.7-.4.6-.1 1.1-.3 1.7-.4-.6 0-1.2.1-1.7.1-.6.1-1.1.1-1.8.2-.3 0-.6.2-.8.3-.3.1-.5.3-.8.4-.4.2-.7.5-1 .7-.1.2-.1.2 0 .2zm2 1.1c0 .1-.1.1-.1.2.2-.1.5-.3.7-.4.4-.2.8-.3 1.2-.5s.8-.3 1.3-.4c.4-.1.9-.2 1.3-.4-.5 0-.9 0-1.3.1-.5 0-.9.1-1.3.2-.5.1-.9.3-1.3.6-.2.2-.5.3-.6.5 0 .2.1.1.1.1zm8.4-5.1c.3.2.6.4.9.7.3.2.6.5.8.8l.6.9c-.1-.4-.2-.7-.4-1.1-.2-.3-.4-.7-.7-.9-.2-.2-.4-.3-.6-.5l-.2.2c-.1 0-.3-.1-.4-.1z" class="AZ"/><path d="M102.4 125.4c-.1 1.3-.7 2.9-1.9 4.6-1.6 2.3-3.8 4.9-4.7 6-.1.1-.2.3-.4.4v.1l-2.6 3c0-.5-.4-1.1-.9-1.8-1.2-1.6-3.4-3.5-4.4-3 .5-.7 1.1-1.8 1.8-2.9 0-.1.1-.1.1-.2h0l3.7-6c1-1.5 4.2-3.2 7.1-2.6.7.2 1.4.5 2 .9.2.5.2 1 .2 1.5z" class="Aa"/><path d="M102.4 125.4c-.1 1.3-.7 2.9-1.9 4.6-1.6 2.3-3.8 4.9-4.7 6-.1.1-.2.3-.4.4v.1l-2.6 3c0-.5-.4-1.1-.9-1.8 2.6-2.6 8.5-8.5 10.5-12.3z" class="AX AY"/><path d="M89.3 131.7c.6-.1 1.2-.1 1.8 0 .8.2 1.5.5 2.1 1a6.55 6.55 0 0 1 1.5 1.8c.3.6.5 1.2.7 1.9v-.1c0-.7-.2-1.4-.4-2-.3-.8-.8-1.5-1.5-2s-1.5-.9-2.3-1a3.21 3.21 0 0 0-1.7.2h0c-.1.1-.1.2-.2.2zm3.8-6.1c.4-.5.9-1 1.4-1.3.6-.4 1.1-.7 1.8-.9 1.2-.4 2.6-.6 3.9-.3-.6-.3-1.3-.4-2-.4s-1.4.1-2 .4a6.37 6.37 0 0 0-1.8 1c-.3.2-.5.5-.7.7-.3.2-.5.5-.6.8z"/><path d="M50 125.3c-1.2.9-1.9 2.4-5.1 1.8-2.3-.4-6.3-3.3-9.5-6.1l-.1-.1c-1.2-1.1-2.3-2.2-3-3.2.1-.3.5-1 1-1.9.9-1.8 2.2-4.3 2.7-5.1.8.6 2 1.4 3.2 2.3h.1l6.5 4.8c1.2 1 2.7 2.9 3.6 5.1 0 .1.1.1.1.2.1.7.3 1.4.5 2.2z" class="Aa"/><path d="M50 125.3c-1.2.9-1.9 2.4-5.1 1.8-2.3-.4-6.3-3.3-9.5-6.1l-.1-.1c-1.2-1.1-2.3-2.2-3-3.2.1-.3.5-1 1-1.9 2.9 3.2 7.4 6.4 9.8 7.9 2.3 1.4 5 1.5 6.3-.7 0 .1.1.1.1.2.1.6.3 1.3.5 2.1z" class="AX AY"/><path d="M45.7 117.8c.3.1.5.3.7.4.2.2.4.4.6.5.4.4.8.8 1.1 1.3s.6 1 .8 1.5.4 1.1.4 1.6c-.4-1-.9-2-1.5-2.9s-1.3-1.7-2.1-2.4zm-6.5-4.8c-.2.7-.4 1.3-.7 1.9-.3.8-.7 1.6-1.1 2.4l-1.2 2.3c-.3.4-.5.9-.8 1.3l-.1-.1c.2-.5.5-.9.7-1.3l1.2-2.3 1.1-2.4c.3-.6.5-1.2.9-1.8h0z"/><path d="M103.7 89.1c-2.7 4.6-9.5 8.6-15.3 9.6 2-10.5 6.7-15 15.3-9.6z" class="Ab"/><radialGradient id="X" cx="63.667" cy="115.487" r="40.358" gradientTransform="matrix(1 0 0 -1 0 196)" gradientUnits="userSpaceOnUse"><stop offset=".459" stop-color="#ffddaf"/><stop offset=".606" stop-color="#fed9ac"/><stop offset=".739" stop-color="#fbcea1"/><stop offset=".867" stop-color="#f6bc90"/><stop offset=".992" stop-color="#f0a278"/><stop offset="1" stop-color="#efa076"/></radialGradient><path d="M52 37c-2.5 2.7-4.4 5.9-5.2 9.7-.8 3.3-1.4 6.2-1.8 8.6l-.7 4.9c-.3 1.4-.3 2.7-.3 3.9a34.69 34.69 0 0 0 .6 4.5c.5 2.5 1.1 4.6 1.3 6.1.2 1.1.1 2.9-.1 4.8l-.3 2.1-.3 1.5c-.5 2.7-.8 6.2.7 9.5.5 1.2 1.3 2.3 2.1 3.4 2 2.5 5.5 5.4 7.5 6.8 3.2 2.3 5.5 3.2 8.5 3.3 4.9.1 12.4-.7 19.5-2.7S96.1 97.9 99 91.7c2.7-5.7 4.3-11.5 5.4-15.4.6-2.1 3.9-11.2 4.7-21C91.7 45.3 72.8 34.5 52 37z" fill="url(#X)"/><path d="M83.8 101.4l-2.3.8-2.4.6c-1.6.4-3.2.7-4.9.9l-4.9.4h-2.5c-.8 0-1.6-.1-2.5-.2 3.3.2 6.6-.1 9.8-.6 3.3-.4 6.5-1 9.7-1.9z" class="AZ"/><radialGradient id="Y" cx="86.287" cy="106.624" r="6.453" gradientTransform="matrix(0.9924 0.1227 0.1227 -0.9924 -20.2362 187.0793)" gradientUnits="userSpaceOnUse"><stop offset="0" stop-color="#dd6162"/><stop offset="1" stop-color="#df6263" stop-opacity="0"/></radialGradient><circle cx="78.5" cy="91.9" r="6.5" opacity=".3" fill="url(#Y)" class="AX"/><radialGradient id="Z" cx="53.767" cy="106.586" r="5.997" gradientTransform="matrix(0.9924 0.1227 0.1227 -0.9924 -20.2362 187.0793)" gradientUnits="userSpaceOnUse"><stop offset="0" stop-color="#dd6162"/><stop offset="1" stop-color="#df6263" stop-opacity="0"/></radialGradient><path d="M52.7 88.7c-.3 2.6-2.1 4.6-4.5 5.4-.9-1-1.6-2.2-2.1-3.3-1.5-3.2-1.2-6.7-.7-9.2.6-.1 1.1-.1 1.7 0 3.5.3 6.1 3.5 5.6 7.1z" opacity=".3" fill="url(#Z)" class="AX"/><radialGradient id="a" cx="82.856" cy="126.371" r="13.457" gradientTransform="matrix(0.9924 0.1227 0.1227 -0.9924 -20.2362 187.0793)" gradientUnits="userSpaceOnUse"><stop offset=".008" stop-color="#ee9077"/><stop offset="1" stop-color="#ee9077" stop-opacity="0"/></radialGradient><circle cx="77.5" cy="71.8" r="13.5" fill="url(#a)"/><radialGradient id="b" cx="57.064" cy="125.514" r="9.723" gradientTransform="matrix(0.9924 0.1227 0.1227 -0.9924 -20.2362 187.0793)" gradientUnits="userSpaceOnUse"><stop offset=".008" stop-color="#ee9077"/><stop offset="1" stop-color="#ee9077" stop-opacity="0"/></radialGradient><path d="M61.9 70.9c-.7 5.6-5.8 9.5-11.3 8.8-1.7-.2-3.3-.8-4.6-1.8.2-1.9.3-3.6.1-4.7-.2-1.5-.9-3.5-1.4-5.9-.3-1.4-.5-2.9-.6-4.3a9.78 9.78 0 0 1 8.9-3.4c5.6.7 9.6 5.7 8.9 11.3z" fill="url(#b)"/><path d="M56.5 77.8c.4-1.1.4-2.5.4-3.7 0-1.5-.3-2.9-.8-4.3-.6-1.9-1.9-3.7-4-4.2-3.2-.8-5.1 2.3-5.5 4.8-.4 2.6-.1 4.4 1 5.6.6.7 1.8 1.2 3.3 1.8 1.3.5 3.2 1.1 3.8 1.1.6-.1 1.5 0 1.8-1.1zm-1 .6h0 0z" fill="#404041"/><radialGradient id="c" cx="25.185" cy="121.757" r="8.788" gradientTransform="matrix(1.0533 0.1302 0.1227 -0.9924 10.5922 190.8906)" gradientUnits="userSpaceOnUse"><stop offset=".47" stop-color="#fff"/><stop offset="1" stop-color="#a6a5b1"/></radialGradient><path d="M47.1 73.6c.4 2 1.7 2.7 3.6 3.6s4.8 2.1 5.7 1 .8-9.9-3.7-11.7c-3.8-1.7-6.3 3.2-5.6 7.1z" fill="url(#c)"/><defs><path id="d" d="M47.1 73.6c.4 2 1.5 4 3.4 4.9s5 .8 5.9-.3.8-9.9-3.7-11.7c-3.8-1.7-6.3 3.2-5.6 7.1z"/><path id="e" d="M58.3 99.8l-2.7 3s2.2 4.9 6.1 5.1 7.2-1.2 7.2-1.2l-4.8-5.9-5.8-1z"/></defs><clipPath id="f"><use xlink:href="#d"/></clipPath><g clip-path="url(#f)"><radialGradient id="g" cx="61.81" cy="119.926" r="4.949" gradientTransform="matrix(0.9924 0.1227 0.1227 -0.9924 -20.2362 187.0793)" gradientUnits="userSpaceOnUse"><stop offset=".695" stop-color="#c3996b"/><stop offset=".858" stop-color="#a87c4f"/><stop offset="1" stop-color="#4d3b2a"/></radialGradient><circle cx="56.2" cy="73.6" r="4.9" fill="url(#g)"/><radialGradient id="h" cx="61.958" cy="122.006" r="4.948" gradientTransform="matrix(0.9924 0.1227 0.1227 -0.9924 -20.2362 187.0793)" gradientUnits="userSpaceOnUse"><stop offset=".892" stop-color="#333233" stop-opacity="0"/><stop offset="1" stop-color="#333233"/></radialGradient><circle cx="56.2" cy="73.6" r="4.9" fill="url(#h)"/><circle cx="56.2" cy="73.6" r="3.6" fill="#222223"/><g fill="#fff"><circle cx="54.4" cy="71.8" r=".7"/><circle cx="52.5" cy="74.3" r=".4"/></g></g><linearGradient id="i" gradientUnits="userSpaceOnUse" x1="57.763" y1="128.704" x2="57.811" y2="117.785" gradientTransform="matrix(0.9924 0.1227 0.1227 -0.9924 -20.2362 187.0793)"><stop offset="0" stop-color="#a6a5b1"/><stop offset="1" stop-color="#a6a5b1" stop-opacity="0"/></linearGradient><path d="M52.6 67.6c3.6 1.4 4.4 6.7 4.2 9.3.4-2.8-.3-9-4-10.5-3.2-1.3-5.4 1.9-5.7 5.2.4-2.8 2.5-5.2 5.5-4z" fill="url(#i)"/><path d="M89.8 68.6c-2.6-2.1-5-3.3-7.5-4s-6.9.4-9.5.9c-4.1.8-5.5-.2-6.2-2 1.2.2 5.3-.1 8.6-.7 5.5-.9 9.5-.5 14.6 5.8zM53 58.8c-2.6-1.2-4.2-2.4-5.9-1.7-.9.4-2.5 2.2-2.9 4.4.7-1.3 2.6-3.1 4.2-2.7 1.3.4 3.1 1.4 5.1 2.4 1.9 1 3 .3 4.2-1.2-1.4.1-2.4-.1-4.7-1.2z" class="Ab"/><linearGradient id="j" gradientUnits="userSpaceOnUse" x1="114.765" y1="92.78" x2="104.62" y2="77.388"><stop offset="0" stop-color="#efa076"/><stop offset="1" stop-color="#ffddaf"/></linearGradient><path d="M104.6 75.1c2.2-2.4 5.1-4.6 8-3.7s5.2 3.8 4.1 8.5c-1.2 4.7-2.9 6.9-6.9 9.3s-7 3.9-10.5.8c3.5-8.6 3.6-10.6 5.3-14.9z" fill="url(#j)"/><linearGradient id="k" gradientUnits="userSpaceOnUse" x1="104.018" y1="79.283" x2="113.518" y2="91.017"><stop offset=".008" stop-color="#ee9077"/><stop offset="1" stop-color="#ee9077" stop-opacity="0"/></linearGradient><path d="M113.3 81.1c.6-2.5.6-4.2-1.1-4.8s-4.7 1.4-6.9 5c1 1.9.2 4.1-.6 5.4s-2.8 1.6-4.1 2c2.3.7 3.4.8 5.3-.2 1.9-1.1 3.8-1.6 5.1-2.5 1.1-1.1 1.8-2.9 2.3-4.9z" fill="url(#k)"/><path d="M100.5 88.6c.5.2 1 .1 1.5 0s1-.3 1.4-.5c.9-.4 1.8-1.1 2.3-2s.7-2 .5-3c-.1-.6-.3-1.2-.6-1.6.2-.3.5-.6.8-.9.7-.8 1.5-1.5 2.2-2.2.8-.7 1.6-1.4 2.5-1.7a2.2 2.2 0 0 1 1.4.2c.4.3.8.7.7 1.3.2-.5-.1-1.1-.6-1.5-.4-.4-1.1-.5-1.6-.4-1.2.2-2 1-2.8 1.7s-1.5 1.5-2.2 2.4c-.2.3-.4.6-.7.9 0 .1-.1.1-.1.2s.1.2.1.3c.2.5.3 1 .4 1.5.1 1-.1 1.9-.6 2.7s-1.2 1.5-2 1.9l-1.3.6c-.4.2-.8.2-1.3.1zm8.1-2.1c-.9.5-1.9.9-2.9 1.4 1.1-.2 2.1-.5 3.1-1s1.9-1.1 2.6-2.1c.6-1 .9-2.1.9-3.2s-.2-2.2-.5-3.2c.1 1.1.2 2.2.1 3.2-.1 1.1-.3 2.1-.9 2.9-.6.9-1.5 1.5-2.4 2zm-38.2 2.3l.8.3c.3.1.5.3.7.5s.4.4.5.7c.1.1.1.3.2.4s.1.3.1.4l-.6-.6-.6-.6-.6-.6c0-.1-.2-.2-.5-.5z" class="AZ"/><radialGradient id="l" cx="68.629" cy="115.326" r="2.919" gradientTransform="matrix(0.9876 0.1573 0.1573 -0.9876 -24.7928 203.6152)" gradientUnits="userSpaceOnUse"><stop offset=".008" stop-color="#ee9077"/><stop offset="1" stop-color="#ee9077" stop-opacity="0"/></radialGradient><path d="M61 101.3c-1.5-.2-2.7-1-3.4-2.1v.1c-.3 2 1 3.9 3.1 4.2 2 .3 3.9-1 4.2-3.1v-.1c-1 .8-2.4 1.2-3.9 1z" fill="url(#l)"/><path d="M58.3 99.8c1.4 1.2 3.9 1.6 5.7 1-2.1 1.5-4.4 1.6-5.7-1z" class="AZ"/><radialGradient id="m" cx="77.166" cy="127.165" r="2.619" gradientTransform="matrix(0.9876 0.1573 0.1573 -0.9876 -24.7928 203.6152)" gradientUnits="userSpaceOnUse"><stop offset=".008" stop-color="#ee9077"/><stop offset="1" stop-color="#ee9077" stop-opacity="0"/></radialGradient><circle cx="71.4" cy="90.2" r="2.6" opacity=".4" fill="url(#m)" class="AX"/><radialGradient id="n" cx="69.127" cy="116.298" r="6.7" gradientTransform="matrix(0.9876 0.1573 0.1573 -0.9876 -24.7928 203.6152)" gradientUnits="userSpaceOnUse"><stop offset=".454" stop-color="#563831"/><stop offset="1" stop-color="#38231d"/></radialGradient><path d="M54.3 90c4.5 2.1 11 2.3 17.1 0-1.9 7.2-7.1 10.7-11 9.7s-3.6-7.2-6.1-9.7z" fill="url(#n)"/><path d="M71.4 89.9c-2.7 1-5.7 1.6-8.6 1.7s-5.9-.4-8.5-1.6h0c-.8-.3-1.8-1-2.4-1.9.8.6 1.4 1 2.8 1.5 1.5.6 3.2.9 3.9 1 1.4.3 2.8.4 4.2.4a31.08 31.08 0 0 0 4.3-.3l2.1-.4c.8 0 1.5-.2 2.2-.4z" class="AZ"/><defs><path id="o" d="M54.3 90c4.5 2.1 11 2.3 17.1 0-1.9 7.2-7.1 10.7-11 9.7-2-.5-3-2.5-3.7-4.6-3.3-.5-2.5-3.7-2.4-5.1z"/></defs><clipPath id="p"><use xlink:href="#o"/></clipPath><radialGradient id="q" cx="66.716" cy="95.164" r="3.266" gradientTransform="matrix(0.9924 0.1227 0.1227 -0.9924 -20.2362 187.0793)" gradientUnits="userSpaceOnUse"><stop offset=".47" stop-color="#fff"/><stop offset="1" stop-color="#a6a5b1"/></radialGradient><path d="M56.7 98c1.8-.8 3.2-1.1 4.3-.4-.2 1.7-2.1 2.5-2.2 2.5L56.7 98z" clip-path="url(#p)" fill="url(#q)"/><defs><path id="r" d="M54.3 90c4.5 2.1 11 2.3 17.1 0-1.9 7.2-7.1 10.7-11 9.7-2-.5-3-2.5-3.7-4.6-3.3-.5-2.5-3.7-2.4-5.1z"/></defs><clipPath id="s"><use xlink:href="#r"/></clipPath><radialGradient id="t" cx="73.008" cy="97.013" r="3.741" gradientTransform="matrix(0.9924 0.1227 0.1227 -0.9924 -20.2362 187.0793)" gradientUnits="userSpaceOnUse"><stop offset=".454" stop-color="#dd6162"/><stop offset="1" stop-color="#c04d4e"/></radialGradient><path d="M59 99.5c-.5-.7.6-1.8 1.4-2.2.9-.4 2.5-.5 3.4-.1 1.6-.8 3.7-.7 5 .6-1.9 2.7-7.4 4.1-9.8 1.7z" clip-path="url(#s)" fill="url(#t)"/><defs><path id="u" d="M54.3 90c4.5 2.1 11 2.3 17.1 0-1.9 7.2-7.1 10.7-11 9.7-2-.5-3-2.5-3.7-4.6-3.3-.5-2.5-3.7-2.4-5.1z"/></defs><clipPath id="v"><use xlink:href="#u"/></clipPath><g clip-path="url(#v)"><radialGradient id="w" cx="66.048" cy="118.712" r="13.643" gradientTransform="matrix(0.9876 0.1573 0.1573 -0.9876 -24.7928 203.6152)" gradientUnits="userSpaceOnUse"><stop offset=".47" stop-color="#fff"/><stop offset="1" stop-color="#a6a5b1"/></radialGradient><path d="M73.4 88.4c-.1.4-.5 2.2-2.5 4.2-.6.5.3.5-.5 1-5.3 1.6-10.4 1.1-12.4.6s-2.6-1.4-2.7-2.1c0-.4-.1-1-.2-1.7-.1-.5-.1-1.2-.1-1.8 2.1-1.6 13.3-1.3 18.4-.2z" fill="url(#w)"/><linearGradient id="x" gradientUnits="userSpaceOnUse" x1="70.464" y1="135.89" x2="69.155" y2="120.279" gradientTransform="matrix(0.9876 0.1573 0.1573 -0.9876 -24.7928 203.6152)"><stop offset="0" stop-color="#a6a5b1"/><stop offset="1" stop-color="#a6a5b1" stop-opacity="0"/></linearGradient><path d="M73.4 88.4c-.1.4-.5 2.2-2.5 4.2-1.4-1.2-2.8-1.2-5-.8-2.2.3-3.9.1-5.8 0-1.4-.1-3.5-.7-5-1.3-.1-.6-.1-1.3-.1-1.9 2.1-1.6 13.3-1.3 18.4-.2z" fill="url(#x)"/></g><radialGradient id="y" cx="84.452" cy="123.79" r="8.434" gradientTransform="matrix(0.9924 0.1227 0.1227 -0.9924 -20.2362 187.0793)" gradientUnits="userSpaceOnUse"><stop offset="0" stop-color="#484241"/><stop offset="1" stop-color="#383432"/></radialGradient><path d="M87.8 76.3c.2-3.7-2-7.4-5.5-8.7-2.2-.8-4.8-.6-6.9.4-3.6 1.6-5.9 5.9-6.3 9.7-.1.9-.1 1.6.4 2.3.5.8.9.9 2.2 1.3s4.1.1 6.2.2c2.9.1 6.7.3 8.6-1.4.9-.8 1.2-2.1 1.3-3.8z" fill="url(#y)"/><radialGradient id="z" cx="84.292" cy="122.242" r="13.079" gradientTransform="matrix(0.9924 0.1227 0.1227 -0.9924 -20.2362 187.0793)" gradientUnits="userSpaceOnUse"><stop offset=".47" stop-color="#fff"/><stop offset="1" stop-color="#a6a5b1"/></radialGradient><path d="M69.1 78.9c-.2 2.4 3.5 2.3 8.1 2 4.5-.3 8.7.5 9.7-2.9 1.1-3.7-1.5-10-7.4-10.1-8.2-.2-10.2 8.5-10.4 11z" fill="url(#z)"/><defs><path id="AA" d="M69.1 78.9c-.2 2.4 3.5 2.3 8.1 2 4.5-.3 8.7.5 9.7-2.9 1.1-3.7-1.5-10-7.4-10.1-8.2-.2-10.2 8.5-10.4 11z"/></defs><clipPath id="AB"><use xlink:href="#AA"/></clipPath><g clip-path="url(#AB)"><radialGradient id="AC" cx="84.809" cy="119.022" r="6.178" gradientTransform="matrix(0.9924 0.1227 0.1227 -0.9924 -20.2362 187.0793)" gradientUnits="userSpaceOnUse"><stop offset=".695" stop-color="#c3996b"/><stop offset=".858" stop-color="#a87c4f"/><stop offset="1" stop-color="#4d3b2a"/></radialGradient><circle cx="79" cy="76.8" r="6.2" fill="url(#AC)"/><radialGradient id="AD" cx="84.993" cy="121.628" r="6.172" gradientTransform="matrix(0.9924 0.1227 0.1227 -0.9924 -20.2362 187.0793)" gradientUnits="userSpaceOnUse"><stop offset=".892" stop-color="#333233" stop-opacity="0"/><stop offset="1" stop-color="#333233"/></radialGradient><circle cx="79" cy="76.8" r="6.2" fill="url(#AD)"/><circle cx="79" cy="76.8" r="4.5" fill="#222223"/><g fill="#fff"><circle cx="82.7" cy="74.9" r=".9"/><circle cx="76.7" cy="79.4" r=".5"/></g></g><linearGradient id="AE" gradientUnits="userSpaceOnUse" x1="84.227" y1="130.774" x2="84.162" y2="115.442" gradientTransform="matrix(0.9924 0.1227 0.1227 -0.9924 -20.2362 187.0793)"><stop offset="0" stop-color="#a6a5b1"/><stop offset="1" stop-color="#a6a5b1" stop-opacity="0"/></linearGradient><path d="M79.4 69.3c5.2.2 7.9 4.7 7.7 8.1.7-3.7-1.9-9.4-7.5-9.5-7.5-.2-10.2 6.9-10.5 10.2.4-3.1 3.1-9 10.3-8.8z" fill="url(#AE)"/><radialGradient id="AF" cx="62.164" cy="92.103" r="5.496" gradientTransform="matrix(1 0 0 -1 0 196)" gradientUnits="userSpaceOnUse"><stop offset="0" stop-color="#484241"/><stop offset="1" stop-color="#383432"/></radialGradient><use xlink:href="#e" fill="url(#AF)"/><linearGradient id="AG" gradientUnits="userSpaceOnUse" x1="55.531" y1="103.86" x2="68.797" y2="103.86"><stop offset="0" stop-color="#a6a5b1"/><stop offset="1" stop-color="#a6a5b1" stop-opacity="0"/></linearGradient><use xlink:href="#e" fill="url(#AG)"/><path d="M49.6 79.9c-.7 1.3-.1 2.6-1 3.1-2.4 1.4-2.8 11.1.3 11.9 1.3-.8 4-10.5 8.9-7.4 2.6 1.6 4.5 2.6 8.3 2.4 3.3-.1 6.9.1 10.5.9h.1c4.7 1.1 6 7 2 9.1-5 2.6-13 9.3-21.5 3.6-7.1-4.8-10.7-15.4-12.2-18 0-.1-.8 7.9-.8 7.8-2.3 7.7 10.9 20 17.2 22.5 2.1.8 5 1 8.1.7 4.7-.5 9.1-2.1 13.1-4.7 3.1-2 5.4-5 8.2-7.6 9.9-9.4 13.3-23.6 11.9-23.7L99 78.4s-4.5 8.9-10.6 14.3c-2.2-2.3-5.8-5.5-10.3-6.9-2.4-.7-4.8-.8-7.1-.6-5.8.6-11-1.2-16.2-4-2.4-1.3-4.2-2.3-5.2-1.3z" class="Ab"/><radialGradient id="AH" cx="61.846" cy="143.257" r="4.221" gradientTransform="matrix(0.9829 0.1844 0.1844 -0.9829 -30.1685 216.6737)" gradientUnits="userSpaceOnUse"><stop offset=".008" stop-color="#ee9077"/><stop offset="1" stop-color="#ee9077" stop-opacity="0"/></radialGradient><circle cx="57" cy="87.3" r="4.2" fill="url(#AH)"/><linearGradient id="AI" gradientUnits="userSpaceOnUse" x1="59.897" y1="141.503" x2="60.738" y2="146.614" gradientTransform="matrix(0.9829 0.1844 0.1844 -0.9829 -30.1685 216.6737)"><stop offset="0" stop-color="#efa076"/><stop offset="1" stop-color="#ffddaf"/></linearGradient><path d="M60.4 86.3c-1 1.3-2.5 2-3.7 1.9-3-.4-4.3-2.1-4.9-3.2-.2-.5-.3-1-.2-1.4s.5-.6 1-.6c1 .1 2.8-.6 3.6-1.8s1.4-3.2 1.5-6.2c4.8 5.1 4.4 9.1 2.7 11.3z" fill="url(#AI)"/><path d="M57.9 79.1c.1.7 0 1.4-.2 2s-.6 1.3-1.1 1.7c-.5.5-1.2.8-1.9.9-.3.1-.7.1-1 0a1.93 1.93 0 0 1-1-.3c.3.1.7.1 1 .1s.6-.1 1-.1c.6-.2 1.2-.5 1.7-.9s.8-1 1.1-1.5c.2-.6.3-1.2.4-1.9z" fill="#ffefca"/><linearGradient id="AJ" gradientUnits="userSpaceOnUse" x1="58.337" y1="148.866" x2="62.703" y2="140.86" gradientTransform="matrix(0.9829 0.1844 0.1844 -0.9829 -30.1685 216.6737)"><stop offset=".008" stop-color="#ee9077"/><stop offset="1" stop-color="#ee9077" stop-opacity="0"/></linearGradient><path d="M60.4 86.3c-1 1.3-2.5 2-3.7 1.9-3-.4-4.3-2.1-4.9-3.2-.2-.5-.3-1-.2-1.4 1.8 1.6 4.5 2.6 8.8 2.7z" fill="url(#AJ)"/><path d="M57.7 75c-.1 1.6-.3 3.2-.8 4.8-.3.7-.6 1.5-1.2 2.1-.6.5-1.3.9-2.1 1.1-.2 0-.4.1-.6.1h-.6c-.4 0-.7.4-.8.8-.1.8.4 1.6.9 2.2 1 1.3 2.6 2 4.2 2.2-.8 0-1.6-.1-2.4-.4s-1.5-.8-2.1-1.5a4.44 4.44 0 0 1-.8-1.1c-.2-.4-.4-.9-.3-1.5 0-.3.1-.6.4-.9.2-.3.6-.4.9-.4h.4.2c.2 0 .3 0 .5-.1.7-.1 1.4-.5 1.9-.9s.8-1.1 1.2-1.8c.3-.7.5-1.5.7-2.2.2-.9.3-1.7.4-2.5z" class="AZ"/><g class="Ab"><path d="M110.4 59.9l-9.2 26-6.7-6.4.6-33.3c.4-.8-3-2.8-3-2.8l12.5 4.3c4.6 2.3 7 7.3 5.8 12.2zM43.3 40.1s-.7 5.6-4.3 9.5c0 0-2.9 2.7-3.1 7.3 0 0 1.5-3.4 3.5-4.2 0 0-5.9 10-1.1 17 0 0-5.3 6.6 1.2 12.2 0 0 4 4.1 1.6 7.6 0 0 5.8-1.9 3.3-6 0 0-2.5-3.5-2.4-5.1 0 0 3.4-2.8 1.8-8.8 0 0 3.5-4 .9-8.3 0 0-3.1-3.8 1-8 0 0 10.9-6 9.3-17.3 0 0-8.9-.9-11.7 4.1z"/><path d="M88.1 41.3s0 3.6 1.4 8.6c0 0 1.8 7.4-1 13.4 0 0-1.4 3.5.6 6.2 0 0-3.2 6.4.3 11 0 0 1.2 1.6-.9 3.4 0 0-5.8 3.4-6.1 8.6 0 0-.6 4.8 4.1 9 0 0 3.6 2.2-.9 5.3 0 0-6.7 2.8-2.2 8 0 0-.8-3.7 3.8-4.9 0 0 9.4-1.8 3.3-11.4 0 0-5.3-6.5.4-10.7 0 0 10.4-4.4 3.9-15 0 0 8.2-4.1 3-13.7 0 0 5.8-4.9 3.1-11.8-.1 0-6.2-1.6-12.8-6zM40 80.1s-.7 3-2.1 5.9c0 0-2.3 4.3-1.9 7.9 0 0 .2 4 5.2 7.1 0 0 2.9 2.2 1.2 4.9 0 0 6.3-2.5 2.7-6.4 0 0-7.6-5.5-3.5-11.4l1.8-3.2-3.4-4.8z"/></g><linearGradient id="AK" gradientUnits="userSpaceOnUse" x1="39.387" y1="85" x2="41.666" y2="85"><stop offset="0" stop-color="#a6a5b1"/><stop offset="1" stop-color="#a6a5b1" stop-opacity="0"/></linearGradient><path d="M39.5 81.9s2.6 2.5 2.2 6.1l-.1.1s0-3.7-2.1-6v-.2z" fill="url(#AK)"/><linearGradient id="AL" gradientUnits="userSpaceOnUse" x1="38.118" y1="70.5" x2="40.572" y2="70.5"><stop offset="0" stop-color="#a6a5b1"/><stop offset="1" stop-color="#a6a5b1" stop-opacity="0"/></linearGradient><path d="M38.2 69.6a5.41 5.41 0 0 0 2.3 1.8s-1.4-.3-2.5-1.7l.2-.1z" fill="url(#AL)"/><linearGradient id="AM" gradientUnits="userSpaceOnUse" x1="39.117" y1="51.7" x2="41.579" y2="51.7"><stop offset="0" stop-color="#a6a5b1"/><stop offset="1" stop-color="#a6a5b1" stop-opacity="0"/></linearGradient><path d="M39.3 52.6s1.2-.7 2.3-2.1c0 0-.9 1.7-2.5 2.4l.2-.3z" fill="url(#AM)"/><linearGradient id="AN" gradientUnits="userSpaceOnUse" x1="42.43" y1="69.95" x2="43.754" y2="69.95"><stop offset="0" stop-color="#a6a5b1"/><stop offset="1" stop-color="#a6a5b1" stop-opacity="0"/></linearGradient><path d="M43.7 69.5s-.4.6-1.3.9c0 0 .6 0 1.3-.7v-.2z" fill="url(#AN)"/><path d="M41.9 78.3s-.9-3.2-.2-5.4c0 0-.4 3.1.2 5.4h0zM41 59.2s-.4 5.3.6 7.6c.1.1-1.4-1.7-.6-7.6zm10.4-22.3s-1.5 6.7-4.7 10c0 0 3.1-2 4.7-10zM39.1 94.4s-.3 2.1 1.9 4.3c0 0-2.3-1.5-1.9-4.3zm50.6-24.3s1.7 2.5 5.6 3.2l.1.2s-3.7-.2-5.8-3.3l.1-.1zM94 63s-.8 3.2-3 5.1c-.1.1 2.1-.8 3-5.1zm4.3-3.4s-3.2-3.4-2.7-6.4c0 0 0 3.2 2.8 6.2l-.1.2zm-8 22.8s2.2 3 1 6l.1-.1s1.6-2.6-1.1-6.1v.2zM88 103.1s1.7 2 1.1 3.4c.1 0 1-1.3-1.1-3.4zm-1.6-11s-.9 4.4 1.8 7.7c0 0-3-2.9-1.8-7.7z" class="AX AY"/><path d="M50.5 185.8s-3.2 3.1-8.2 5.1c0 0-1 .2-.3 1.1 0 0 2.6 3.3 12.8-1.3 0 0 .8-.6 1.4 0 0 0 6-.1 5.2-2.7l-7.6-2.5-1.3-1.2-2 1.5zm23.2 1.2s-2 3.1-.5 7.3c0 0 .1.6 2.8.8 0 0 2.3 0 3.6-1.2 0 0 3.9-3.5 2.6-8l-3.4-2.5-5.2 2.3.1 1.3z"/></svg>